<svg width="259" height="229" viewBox="0 0 259 229" fill="none" xmlns="http://www.w3.org/2000/svg">
<path d="M151.178 83.1176C151.178 83.1176 150.793 62.5071 169.426 62.5071C189.071 62.5071 185.433 48.5598 204.383 49.6982C217.192 50.4686 220.514 63.9966 227.88 65.9954C235.245 67.9943 242.179 70.4198 242.179 82.7274L151.178 83.1176Z" fill="white"/>
<path d="M191.443 186.002C191.443 186.002 191.159 170.797 204.906 170.797C219.399 170.797 216.715 160.507 230.695 161.347C240.145 161.916 242.595 171.896 248.03 173.371C253.465 174.846 258.58 176.635 258.58 185.716L191.443 186.002Z" fill="white"/>
<path d="M0.000537575 116.317C0.000537575 116.317 -0.341278 98.0044 16.2136 98.0044C33.6665 98.0044 30.4344 85.613 47.2698 86.6259C58.6483 87.3102 61.5998 99.3292 68.1449 101.105C74.69 102.881 80.8497 105.036 80.8497 115.971L0.000537575 116.317Z" fill="white"/>
<path opacity="0.1" d="M151.178 83.1176C151.178 83.1176 150.793 62.5071 169.426 62.5071C189.071 62.5071 185.433 48.5598 204.383 49.6982C217.192 50.4686 220.514 63.9966 227.88 65.9954C235.245 67.9943 242.179 70.4198 242.179 82.7274L151.178 83.1176Z" fill="#6A00BF"/>
<path opacity="0.1" d="M191.443 186.002C191.443 186.002 191.159 170.797 204.906 170.797C219.399 170.797 216.715 160.507 230.695 161.347C240.145 161.916 242.595 171.896 248.03 173.371C253.465 174.846 258.58 176.635 258.58 185.716L191.443 186.002Z" fill="#6A00BF"/>
<path opacity="0.1" d="M0.000537575 116.317C0.000537575 116.317 -0.341278 98.0044 16.2136 98.0044C33.6665 98.0044 30.4344 85.613 47.2698 86.6259C58.6483 87.3102 61.5998 99.3292 68.1449 101.105C74.69 102.881 80.8497 105.036 80.8497 115.971L0.000537575 116.317Z" fill="#6A00BF"/>
<path d="M193.612 38.6896C193.468 38.459 193.373 38.2014 193.332 37.9328C193.291 37.6641 193.306 37.39 193.374 37.127C193.443 36.8641 193.564 36.6179 193.731 36.4035C193.898 36.1891 194.107 36.0109 194.345 35.8798C194.815 35.6421 195.357 35.5916 195.862 35.7386C196.368 35.8855 196.799 36.2188 197.068 36.6712L198.496 38.9646L197.805 30.9043C197.657 29.8707 198.132 28.5097 199.301 28.4182C200.241 28.282 201.007 27.0188 202.132 27.5743C202.142 27.5714 210.968 34.5251 211.107 35.4826L211.651 48.2417C212.241 52.3043 198.436 51.49 198.436 51.49L193.612 38.6896Z" fill="#E98862"/>
<g opacity="0.1">
<path d="M193.61 38.6897C193.466 38.459 193.371 38.2015 193.33 37.9328C193.289 37.6641 193.304 37.39 193.372 37.1271C193.441 36.8642 193.563 36.618 193.73 36.4035C193.896 36.1891 194.105 36.0109 194.343 35.8798C194.813 35.6422 195.355 35.5917 195.861 35.7386C196.366 35.8855 196.797 36.2189 197.066 36.6713L198.494 38.9647L197.803 30.9043C197.655 29.8707 198.13 28.5097 199.299 28.4182C200.239 28.282 201.005 27.0188 202.13 27.5744C202.14 27.5714 210.966 34.5251 211.105 35.4827L211.649 48.2417C212.24 52.3044 198.434 51.4901 198.434 51.4901L193.61 38.6897Z" fill="#0C0C0C"/>
</g>
<path d="M99.2611 101.278C99.2611 101.278 98.4686 113.17 95.7931 117.483C88.0912 129.904 85.8598 143.876 93.5728 151.176C101.286 158.477 150.482 158.579 154.209 141.789C157.347 127.653 150.613 126.133 148.975 114.473C148.234 109.196 146.194 98.1328 146.194 98.1328" fill="#0A0A0A"/>
<path d="M141.475 139.327C141.39 139.316 140.448 154.952 122.283 153.589C109.707 152.647 105.223 139.304 104.934 139.304C106.29 139.015 108.573 138.596 109.175 138.275C111.155 137.211 113.605 136.104 114.243 132.258C114.613 130.044 113.987 118.703 114.18 116.459L133.483 120.768C133.213 125.504 131.325 136.484 137.942 138.427C139.044 138.751 140.23 139.046 141.475 139.327Z" fill="#E98862"/>
<path opacity="0.5" d="M133.754 133.942C133.452 132.967 133.257 131.963 133.174 130.946C132.961 128.626 133.004 126.289 133.3 123.978C129.377 123.448 125.681 121.829 122.632 119.304C122.274 120.627 120.302 126.412 120.848 127.67C121.879 130.048 126.727 133.942 133.754 133.942Z" fill="#0C0C0C"/>
<path d="M131.259 129.07C123.648 129.808 113.801 126.762 111.761 116.627L109.921 107.483C107.881 97.3476 111.55 88.0602 121.093 86.1393C130.636 84.2198 139.422 90.9993 141.462 101.134L142.277 105.183C143.059 109.072 144.837 127.756 131.259 129.07Z" fill="#E98862"/>
<path d="M136.672 116.95C134.199 118.207 131.378 118.605 128.654 118.08C128.559 118.062 128.462 118.071 128.373 118.106C128.284 118.142 128.206 118.202 128.15 118.28C128.094 118.358 128.061 118.45 128.055 118.546C128.05 118.642 128.071 118.737 128.118 118.821C128.93 120.252 130.856 122.697 134.16 121.7C136.294 121.057 137.101 118.861 137.4 117.504C137.42 117.41 137.413 117.312 137.38 117.222C137.347 117.132 137.289 117.053 137.212 116.995C137.136 116.937 137.044 116.902 136.949 116.894C136.853 116.886 136.757 116.905 136.672 116.95Z" fill="white"/>
<path d="M136.826 105.952C137.486 105.952 138.021 105.417 138.021 104.757C138.021 104.097 137.486 103.562 136.826 103.562C136.167 103.562 135.632 104.097 135.632 104.757C135.632 105.417 136.167 105.952 136.826 105.952Z" fill="#0C0C0C"/>
<path d="M125.345 107.962C126.005 107.962 126.54 107.427 126.54 106.768C126.54 106.108 126.005 105.573 125.345 105.573C124.685 105.573 124.15 106.108 124.15 106.768C124.15 107.427 124.685 107.962 125.345 107.962Z" fill="#0C0C0C"/>
<path opacity="0.1" d="M126.421 115.79C127.673 115.64 128.6 114.775 128.49 113.856C128.381 112.937 127.277 112.314 126.024 112.463C124.772 112.613 123.845 113.478 123.955 114.397C124.064 115.316 125.169 115.939 126.421 115.79Z" fill="#0C0C0C"/>
<path opacity="0.1" d="M139.655 112.117C139.766 113.034 140.871 113.657 142.124 113.509C142.34 113.483 142.553 113.435 142.76 113.365C142.818 112.271 142.821 111.219 142.789 110.244C142.441 110.158 142.081 110.136 141.725 110.182C140.472 110.33 139.546 111.195 139.655 112.117Z" fill="#0C0C0C"/>
<path opacity="0.5" d="M134.121 114.952L134.14 114.949C134.526 114.868 134.908 114.766 135.284 114.644C135.844 114.456 136.576 114.148 136.475 113.641C136.36 113.064 133.522 107.152 133.2 106.48C133.172 106.422 133.121 106.376 133.06 106.355C132.998 106.333 132.931 106.337 132.872 106.365C132.813 106.394 132.768 106.444 132.747 106.506C132.725 106.567 132.729 106.635 132.757 106.693C133.967 109.211 135.915 113.351 135.993 113.74C135.932 113.921 135.003 114.275 134.043 114.468C133.98 114.48 133.923 114.515 133.886 114.568C133.848 114.62 133.833 114.685 133.844 114.749C133.854 114.813 133.889 114.87 133.941 114.908C133.992 114.946 134.057 114.962 134.121 114.953L134.121 114.952Z" fill="#0C0C0C"/>
<path d="M102.306 110.765L110.861 109.094C117.323 106.392 119.157 95.1291 119.157 95.1291C119.157 95.1291 127.132 102.724 146.194 98.1317C146.194 98.1317 142.053 71.5224 113.908 79.5994C104.832 82.2036 98.404 91.4541 99.36 103.706C100.03 112.293 102.306 110.765 102.306 110.765Z" fill="#0A0A0A"/>
<path d="M112.975 119.596C110.075 120.18 107.1 117.55 106.516 114.65C105.931 111.749 107.961 109.677 110.861 109.093L112.747 110.736L115.468 119.093L112.975 119.596Z" fill="#E98862"/>
<path d="M135.256 101.765C135.981 101.252 136.83 100.94 137.715 100.862C138.159 100.819 138.607 100.844 139.044 100.936C139.485 101.026 139.913 101.171 140.318 101.367L140.331 101.373C140.376 101.393 140.427 101.394 140.473 101.377C140.518 101.36 140.556 101.325 140.577 101.281C140.598 101.237 140.6 101.186 140.584 101.14C140.568 101.093 140.535 101.055 140.491 101.033C140.062 100.806 139.606 100.635 139.134 100.522C138.659 100.407 138.169 100.363 137.681 100.393C136.692 100.448 135.736 100.767 134.912 101.316C134.85 101.358 134.808 101.423 134.794 101.497C134.78 101.57 134.795 101.646 134.837 101.708C134.88 101.77 134.944 101.813 135.018 101.827C135.092 101.841 135.168 101.825 135.229 101.783L135.236 101.778L135.256 101.765Z" fill="#0C0C0C"/>
<path d="M127.441 102.845C126.469 102.652 125.464 102.723 124.529 103.051C124.067 103.21 123.632 103.438 123.237 103.726C122.844 104.011 122.489 104.344 122.179 104.717C122.147 104.754 122.13 104.803 122.132 104.852C122.135 104.901 122.157 104.947 122.193 104.981C122.23 105.014 122.278 105.032 122.327 105.03C122.377 105.028 122.423 105.007 122.457 104.971L122.467 104.96C122.766 104.624 123.105 104.326 123.478 104.074C123.847 103.823 124.252 103.628 124.679 103.497C125.527 103.231 126.431 103.195 127.297 103.391L127.319 103.396C127.391 103.413 127.468 103.401 127.532 103.363C127.596 103.324 127.642 103.261 127.659 103.188C127.677 103.116 127.665 103.039 127.626 102.975C127.587 102.911 127.524 102.865 127.452 102.848L127.441 102.845Z" fill="#0C0C0C"/>
<path d="M110.866 108.954C116.618 106.813 118.526 102.842 119.114 99.8865C119.494 97.9156 119.458 95.887 119.009 93.9306L118.831 93.9793C119.273 95.9103 119.308 97.9124 118.931 99.8574C118.351 102.764 116.47 106.672 110.802 108.781L110.866 108.954Z" fill="#0C0C0C"/>
<path d="M45.393 65.6909L41.6168 53.6251C41.5338 53.36 41.3965 53.115 41.2136 52.9059C41.0308 52.6968 40.8064 52.528 40.5548 52.4103C40.3031 52.2926 40.0298 52.2286 39.752 52.2224C39.4743 52.2162 39.1983 52.2678 38.9417 52.3741C38.4739 52.585 38.1011 52.9622 37.8956 53.4323C37.6901 53.9025 37.6665 54.4323 37.8295 54.9189L38.6393 57.5061L32.3582 50.5388C31.6734 49.7518 30.328 49.2243 29.4978 50.0508C29.1569 50.3478 28.9268 50.7516 28.8449 51.1963C28.763 51.641 28.8343 52.1003 29.0471 52.4992C29.038 52.5037 29.0294 52.5093 29.0216 52.5158C29.0165 52.5217 29.0118 52.5278 29.0076 52.5343L27.9519 51.3209C27.7561 51.0963 27.5128 50.9181 27.2394 50.7994C26.9661 50.6807 26.6698 50.6245 26.372 50.6349C26.0742 50.6453 25.7825 50.7221 25.5181 50.8595C25.2537 50.997 25.0233 51.1917 24.8438 51.4295C24.5685 51.8095 24.432 52.2725 24.4573 52.741C24.4826 53.2096 24.668 53.6552 24.9826 54.0034L25.4318 54.5202C25.423 54.5402 25.4178 54.5616 25.4163 54.5833C25.0317 54.3048 24.5606 54.1722 24.0872 54.2092C23.6138 54.2462 23.169 54.4504 22.8324 54.7853C22.4749 55.1624 22.2727 55.6604 22.2663 56.1801C22.2599 56.6997 22.4496 57.2026 22.7977 57.5884L23.9139 58.8708C23.8853 58.8639 23.8555 58.8638 23.8269 58.8706C23.7983 58.8774 23.7717 58.8909 23.7493 58.9099C23.7239 58.9339 23.706 58.9649 23.698 58.9989C23.2867 58.8462 22.8366 58.8328 22.4169 58.9608C21.9972 59.0887 21.6312 59.351 21.375 59.7073C21.1136 60.087 20.9881 60.5438 21.0187 61.0038C21.0493 61.4638 21.2343 61.9 21.5437 62.2417L30.9614 73.0621C32.2791 74.5755 34.0187 75.6611 35.9572 76.1797C37.8957 76.6983 39.9449 76.6264 41.8423 75.9731C43.4783 75.4094 44.8301 74.23 45.6104 72.6856C46.3907 71.1411 46.5381 69.3533 46.0212 67.7019L45.393 65.6909Z" fill="#E98862"/>
<g opacity="0.2">
<path d="M35.2299 59.4268C35.1933 59.4585 35.1456 59.4745 35.0973 59.4714C35.049 59.4683 35.0038 59.4463 34.9715 59.4102L29.0078 52.7765C28.9751 52.7401 28.9581 52.6921 28.9607 52.6432C28.9633 52.5943 28.9852 52.5484 29.0216 52.5157C29.0581 52.483 29.106 52.466 29.1549 52.4686C29.2038 52.4712 29.2497 52.4931 29.2824 52.5295L35.2469 59.1632C35.2796 59.1996 35.2966 59.2475 35.294 59.2964C35.2914 59.3452 35.2696 59.3911 35.2332 59.4238L35.2299 59.4268Z" fill="#0C0C0C"/>
</g>
<g opacity="0.2">
<path d="M32.3775 62.138C32.3409 62.1697 32.2932 62.1857 32.2449 62.1826C32.1965 62.1795 32.1514 62.1575 32.1191 62.1214L25.4636 54.7181C25.4309 54.6817 25.414 54.6338 25.4165 54.585C25.4191 54.5361 25.4409 54.4903 25.4773 54.4575C25.5145 54.4263 25.5621 54.4104 25.6106 54.413C25.659 54.4156 25.7047 54.4365 25.7383 54.4715L32.3945 61.8745C32.4272 61.9108 32.4442 61.9587 32.4416 62.0076C32.439 62.0565 32.4172 62.1023 32.3808 62.1351L32.3775 62.138Z" fill="#0C0C0C"/>
</g>
<g opacity="0.2">
<path d="M29.3045 65.0926C29.2679 65.1242 29.2202 65.1402 29.1719 65.137C29.1235 65.1338 29.0784 65.1118 29.0461 65.0756L23.7373 59.1717C23.7045 59.1353 23.6876 59.0873 23.6902 59.0384C23.6928 58.9895 23.7147 58.9437 23.7511 58.9109C23.7876 58.8782 23.8355 58.8612 23.8844 58.8638C23.9333 58.8664 23.9792 58.8883 24.0119 58.9247L29.3219 64.8309C29.3546 64.8673 29.3715 64.9152 29.3688 64.9641C29.3662 65.0129 29.3443 65.0588 29.3079 65.0915L29.3045 65.0926Z" fill="#0C0C0C"/>
</g>
<path d="M192.251 43.8549L180.164 102.203L139.005 143.78L160.616 163.906L201.423 117.315L201.668 117.04C203.107 115.385 204.11 113.397 204.587 111.256L218.442 49.5055L192.251 43.8549Z" fill="#5743DD"/>
<path d="M121.668 149.699C109.084 149.106 108.554 138.424 108.554 138.424C108.554 138.424 102.319 138.827 98.174 139.388C91.3875 140.306 86.911 142.607 83.3482 146.17C80.0341 149.484 80.9743 159.823 80.9743 159.823L84.3005 228.999H160.25L163.841 160.204C163.841 160.204 167.921 151.474 160.986 144.136C155.956 138.816 142.973 138.424 137.746 138.424C137.661 138.424 138.806 150.508 121.668 149.699Z" fill="#5743DD"/>
<path d="M62.5432 113.778L48.9347 65.1095L23.2014 72.5711L38.9327 124.968C39.6522 127.343 41.0182 129.471 42.878 131.114L43.1364 131.34L84.5859 167.773L103.311 144.938L62.5432 113.778Z" fill="#5743DD"/>
<path d="M195.189 29.2664L194.566 29.6909C192.984 30.77 191.205 31.527 189.33 31.9185C187.456 32.31 185.523 32.3285 183.641 31.9728C181.76 31.6171 179.966 30.8943 178.364 29.8456C176.762 28.7969 175.382 27.4429 174.303 25.8608L168.473 17.3121C168.396 17.1993 168.343 17.0725 168.315 16.9389C168.287 16.8053 168.285 16.6676 168.311 16.5335C168.336 16.3994 168.388 16.2716 168.462 16.1574C168.537 16.0432 168.634 15.9449 168.747 15.868L191.743 0.180643C191.97 0.0253913 192.251 -0.0330845 192.521 0.0180667C192.792 0.069218 193.032 0.225811 193.187 0.453432L199.019 9.00364C200.098 10.5856 200.855 12.3646 201.247 14.2391C201.638 16.1136 201.657 18.0469 201.301 19.9285C200.945 21.8101 200.222 23.6032 199.174 25.2054C198.125 26.8076 196.771 28.1876 195.189 29.2664Z" fill="url(#paint0_linear_124_270)"/>
<path d="M183.688 12.8046L187.181 14.7758C187.205 14.7892 187.231 14.7967 187.259 14.7975C187.286 14.7983 187.313 14.7925 187.338 14.7806L190.942 13.0202C190.97 13.0065 191.002 13.001 191.033 13.0042C191.064 13.0074 191.094 13.0193 191.119 13.0384C191.144 13.0576 191.163 13.0833 191.174 13.1127C191.185 13.142 191.188 13.1739 191.182 13.2047L190.386 17.136C190.381 17.1628 190.382 17.1906 190.39 17.2169C190.397 17.2432 190.411 17.2673 190.43 17.287L193.218 20.1706C193.24 20.1932 193.255 20.2215 193.262 20.2523C193.268 20.2831 193.266 20.3151 193.256 20.3448C193.245 20.3745 193.226 20.4005 193.202 20.4201C193.177 20.4397 193.147 20.452 193.116 20.4556L189.131 20.9148C189.104 20.9179 189.078 20.9276 189.055 20.943C189.033 20.9585 189.014 20.9792 189.001 21.0034L187.119 24.5471C187.104 24.5748 187.082 24.5979 187.054 24.6136C187.027 24.6294 186.996 24.6372 186.965 24.6363C186.933 24.6353 186.903 24.6256 186.876 24.6082C186.85 24.5908 186.829 24.5664 186.816 24.5378L185.149 20.8901C185.137 20.8651 185.12 20.8433 185.098 20.8265C185.077 20.8098 185.051 20.7985 185.024 20.7937L181.075 20.0994C181.044 20.0939 181.015 20.0799 180.991 20.0589C180.968 20.0379 180.951 20.0108 180.942 19.9805C180.933 19.9503 180.933 19.9182 180.941 19.8879C180.95 19.8575 180.967 19.8302 180.99 19.8089L183.943 17.0958C183.963 17.0772 183.978 17.0541 183.987 17.0284C183.996 17.0027 183.999 16.9751 183.996 16.9481L183.435 12.9766C183.43 12.945 183.434 12.9126 183.447 12.8833C183.46 12.8539 183.481 12.8288 183.507 12.8107C183.534 12.7927 183.565 12.7826 183.597 12.7815C183.629 12.7804 183.66 12.7884 183.688 12.8046Z" fill="#FAFAFA"/>
<path d="M196.14 25.0668L193.224 27.0549L192.633 27.4565L190.308 29.0438C190.308 29.0438 206.152 43.5245 205.397 61.1015L212.348 56.3607L212.938 55.9591L220.478 50.8167C203.837 45.1036 196.14 25.0668 196.14 25.0668Z" fill="url(#paint1_linear_124_270)"/>
<path d="M222.529 45.2137L199.434 60.9655C198.812 61.3896 198.652 62.2375 199.076 62.8593L204.289 70.5021C204.713 71.1239 205.561 71.2842 206.183 70.86L229.277 55.1082C229.899 54.6841 230.059 53.8362 229.635 53.2144L224.423 45.5717C223.998 44.9498 223.151 44.7896 222.529 45.2137Z" fill="url(#paint2_linear_124_270)"/>
<path d="M178.45 32.5941C177.333 33.3582 176.033 33.8112 174.684 33.9065C173.334 34.0018 171.984 33.736 170.771 33.1364C169.558 32.5369 168.527 31.6252 167.783 30.495C167.039 29.3648 166.61 28.057 166.539 26.706C166.468 25.3549 166.758 24.0093 167.38 22.8076C168.001 21.6058 168.931 20.5912 170.075 19.868C171.218 19.1449 172.534 18.7392 173.886 18.6928C175.238 18.6464 176.578 18.9609 177.768 19.604C178.918 20.2245 179.888 21.1303 180.587 22.2342C181.285 23.3382 181.688 24.6032 181.757 25.9077C181.825 27.2122 181.557 28.5125 180.978 29.6834C180.399 30.8544 179.528 31.8567 178.45 32.5941ZM171.351 22.2215C170.459 22.8308 169.79 23.7151 169.447 24.7395C169.105 25.764 169.106 26.8725 169.451 27.8961C169.797 28.9197 170.468 29.8022 171.361 30.4093C172.255 31.0163 173.323 31.3146 174.401 31.2586C175.48 31.2026 176.511 30.7954 177.337 30.0991C178.163 29.4028 178.739 28.4555 178.977 27.4017C179.214 26.3478 179.101 25.2451 178.654 24.2617C178.207 23.2782 177.45 22.4679 176.5 21.9542C175.699 21.5231 174.796 21.3201 173.888 21.3672C172.98 21.4143 172.102 21.7098 171.351 22.2215Z" fill="url(#paint3_linear_124_270)"/>
<path d="M204.236 15.0098C203.959 15.1981 203.671 15.3681 203.373 15.5188C201.569 16.4298 199.477 16.587 197.558 15.9557C195.638 15.3244 194.048 13.9564 193.137 12.1527C192.226 10.3489 192.069 8.25716 192.7 6.33753C193.331 4.4179 194.699 2.82766 196.503 1.91666C198.229 1.04537 200.222 0.863065 202.078 1.40669C203.934 1.95033 205.514 3.17922 206.497 4.84429C207.48 6.50936 207.794 8.48603 207.374 10.3737C206.954 12.2613 205.832 13.9186 204.236 15.0098ZM197.139 4.63273C196.355 5.17028 195.741 5.92253 195.373 6.79948C195.004 7.67644 194.896 8.64098 195.061 9.57775C195.227 10.5145 195.658 11.3838 196.305 12.0817C196.951 12.7797 197.785 13.2766 198.706 13.5132C199.627 13.7497 200.597 13.7158 201.5 13.4156C202.403 13.1154 203.2 12.5615 203.796 11.8202C204.392 11.0789 204.762 10.1816 204.861 9.23556C204.961 8.28955 204.786 7.33489 204.357 6.48577C204.064 5.90538 203.659 5.3884 203.166 4.96436C202.674 4.54032 202.102 4.21751 201.484 4.01438C200.867 3.81125 200.215 3.73178 199.567 3.78049C198.918 3.82921 198.286 4.00516 197.706 4.2983C197.51 4.39729 197.321 4.50901 197.139 4.63273Z" fill="url(#paint4_linear_124_270)"/>
<path d="M202.639 38.5741C202.429 38.2855 202.319 37.936 202.325 37.579C202.332 37.2219 202.455 36.8768 202.676 36.5963C202.651 36.5822 202.58 36.566 202.606 36.5224L201.377 37.1204C201.019 37.3046 200.606 37.3528 200.215 37.2561C199.824 37.1595 199.481 36.9246 199.25 36.5948C199.032 36.2617 198.946 35.8597 199.008 35.4666C199.07 35.0735 199.275 34.7173 199.584 34.4671C199.569 34.4623 199.561 34.4457 199.548 34.4361L199.042 34.682C198.704 34.854 198.317 34.9039 197.946 34.8232C197.575 34.7424 197.243 34.5361 197.007 34.239C196.863 34.0496 196.763 33.8306 196.713 33.5978C196.664 33.3649 196.667 33.124 196.722 32.8924C196.777 32.6608 196.883 32.4443 197.032 32.2585C197.18 32.0728 197.369 31.9224 197.583 31.8182L198.748 31.2509C198.744 31.2453 198.736 31.2446 198.733 31.238C198.73 31.2313 198.733 31.2206 198.731 31.2121C198.376 31.295 198.005 31.2551 197.676 31.0991C197.347 30.943 197.082 30.68 196.922 30.3531C196.455 29.5351 197.145 28.6031 197.899 28.2365L200.362 27.2657C200.742 27.1161 201.154 27.0627 201.559 27.1105C201.965 27.1582 202.353 27.3055 202.688 27.5392C205.59 29.5599 213.044 35.0182 210.639 36.1888L204.717 39.0702C204.365 39.2302 203.969 39.2683 203.593 39.1784C203.217 39.0886 202.881 38.8759 202.639 38.5741Z" fill="#E98862"/>
<path d="M11.4653 148.472L8.71484 149.547L12.5943 159.472L15.3447 158.397L11.4653 148.472Z" fill="#6A00BF"/>
<path d="M234.561 118.074L227.451 126.013L229.651 127.983L236.761 120.044L234.561 118.074Z" fill="#6A00BF"/>
<path d="M201.966 153.603L200.195 155.967L208.724 162.355L210.495 159.992L201.966 153.603Z" fill="url(#paint5_linear_124_270)"/>
<path d="M73.7883 69.2164L66.0273 76.5196L68.0511 78.6702L75.8121 71.3671L73.7883 69.2164Z" fill="#6A00BF"/>
<path d="M159.75 56.8286L157.19 58.3004L162.502 67.5393L165.062 66.0675L159.75 56.8286Z" fill="#6A00BF"/>
<path d="M55.3275 183.901L49.6404 192.913L52.1377 194.489L57.8248 185.477L55.3275 183.901Z" fill="url(#paint6_linear_124_270)"/>
<path d="M198.425 205.556L193.662 215.089L196.304 216.409L201.066 206.876L198.425 205.556Z" fill="url(#paint7_linear_124_270)"/>
<path d="M237.075 180.474L234.246 181.322L237.306 191.529L240.135 190.681L237.075 180.474Z" fill="#6A00BF"/>
<path d="M30.1654 208.579L28.5205 211.033L37.376 216.968L39.0209 214.514L30.1654 208.579Z" fill="#6A00BF"/>
<path d="M124.716 33.8694L122.156 35.3411L127.467 44.5798L130.027 43.1081L124.716 33.8694Z" fill="url(#paint8_linear_124_270)"/>
<defs>
<linearGradient id="paint0_linear_124_270" x1="184.924" y1="0" x2="184.924" y2="32.2265" gradientUnits="userSpaceOnUse">
<stop stop-color="#FFE600"/>
<stop offset="1" stop-color="#FFA318"/>
</linearGradient>
<linearGradient id="paint1_linear_124_270" x1="205.393" y1="25.0668" x2="205.393" y2="61.1015" gradientUnits="userSpaceOnUse">
<stop stop-color="#FFE600"/>
<stop offset="1" stop-color="#FFA318"/>
</linearGradient>
<linearGradient id="paint2_linear_124_270" x1="210.981" y1="53.0896" x2="217.73" y2="62.9841" gradientUnits="userSpaceOnUse">
<stop stop-color="#FFE600"/>
<stop offset="1" stop-color="#FFA318"/>
</linearGradient>
<linearGradient id="paint3_linear_124_270" x1="174.148" y1="18.6884" x2="174.148" y2="33.9254" gradientUnits="userSpaceOnUse">
<stop stop-color="#FFE600"/>
<stop offset="1" stop-color="#FFA318"/>
</linearGradient>
<linearGradient id="paint4_linear_124_270" x1="199.937" y1="1.0994" x2="199.937" y2="16.337" gradientUnits="userSpaceOnUse">
<stop stop-color="#FFE600"/>
<stop offset="1" stop-color="#FFA318"/>
</linearGradient>
<linearGradient id="paint5_linear_124_270" x1="201.081" y1="154.785" x2="209.61" y2="161.174" gradientUnits="userSpaceOnUse">
<stop stop-color="#FFE600"/>
<stop offset="1" stop-color="#FFA318"/>
</linearGradient>
<linearGradient id="paint6_linear_124_270" x1="52.4839" y1="188.407" x2="54.9813" y2="189.983" gradientUnits="userSpaceOnUse">
<stop stop-color="#FFE600"/>
<stop offset="1" stop-color="#FFA318"/>
</linearGradient>
<linearGradient id="paint7_linear_124_270" x1="196.043" y1="210.323" x2="198.685" y2="211.643" gradientUnits="userSpaceOnUse">
<stop stop-color="#FFE600"/>
<stop offset="1" stop-color="#FFA318"/>
</linearGradient>
<linearGradient id="paint8_linear_124_270" x1="123.436" y1="34.6053" x2="128.747" y2="43.844" gradientUnits="userSpaceOnUse">
<stop stop-color="#FFE600"/>
<stop offset="1" stop-color="#FFA318"/>
</linearGradient>
</defs>
</svg>
