<svg width="16" height="17" viewBox="0 0 16 17" fill="none" xmlns="http://www.w3.org/2000/svg">
<path fill-rule="evenodd" clip-rule="evenodd" d="M0.8125 4.89062V3.09375C0.8125 2.11156 1.61158 1.3125 2.59375 1.3125H4.39062C4.61498 1.3125 4.79688 1.13061 4.79688 0.90625C4.79688 0.681891 4.61498 0.5 4.39062 0.5H2.59375C1.16356 0.5 0 1.66355 0 3.09375V4.89062C0 5.11498 0.181891 5.29688 0.40625 5.29688C0.630609 5.29688 0.8125 5.11498 0.8125 4.89062ZM4.39062 15.6875C4.61498 15.6875 4.79688 15.8694 4.79688 16.0938C4.79688 16.3181 4.61498 16.5 4.39062 16.5H2.59375C1.16356 16.5 0 15.3364 0 13.9062V12.1094C0 11.885 0.181891 11.7031 0.40625 11.7031C0.630609 11.7031 0.8125 11.885 0.8125 12.1094V13.9062C0.8125 14.8884 1.61158 15.6875 2.59375 15.6875H4.39062ZM16 12.1094V13.9062C16 15.3364 14.8364 16.5 13.4062 16.5H11.6094C11.385 16.5 11.2031 16.3181 11.2031 16.0938C11.2031 15.8694 11.385 15.6875 11.6094 15.6875H13.4062C14.3884 15.6875 15.1875 14.8884 15.1875 13.9062V12.1094C15.1875 11.885 15.3694 11.7031 15.5938 11.7031C15.8181 11.7031 16 11.885 16 12.1094ZM16 3.09375V4.89062C16 5.11498 15.8181 5.29688 15.5938 5.29688C15.3694 5.29688 15.1875 5.11498 15.1875 4.89062V3.09375C15.1875 2.11156 14.3884 1.3125 13.4062 1.3125H11.6094C11.385 1.3125 11.2031 1.13061 11.2031 0.90625C11.2031 0.681891 11.385 0.5 11.6094 0.5H13.4062C14.8364 0.5 16 1.66355 16 3.09375ZM10.8036 12.3256C10.9747 12.1675 10.9853 11.9006 10.8272 11.7294C10.6691 11.5582 10.4022 11.5477 10.2311 11.7057C9.62205 12.2683 8.8297 12.5781 8 12.5781C7.1703 12.5781 6.37795 12.2683 5.76894 11.7057C5.59775 11.5477 5.33089 11.5583 5.17278 11.7294C5.01469 11.9006 5.02527 12.1675 5.19642 12.3256C5.96181 13.0325 6.95745 13.4219 8 13.4219C9.04255 13.4219 10.0382 13.0325 10.8036 12.3256ZM8.84375 6.53125V9.53125C8.84375 10.1257 8.36011 10.6094 7.76562 10.6094H7.42188C7.18888 10.6094 7 10.4205 7 10.1875C7 9.9545 7.18888 9.76562 7.42188 9.76562H7.76562C7.89486 9.76562 8 9.66048 8 9.53125V6.53125C8 6.29825 8.18888 6.10938 8.42188 6.10938C8.65487 6.10938 8.84375 6.29825 8.84375 6.53125ZM11.75 7.71094V6.50781C11.75 6.28777 11.5716 6.10938 11.3516 6.10938C11.1315 6.10938 10.9531 6.28777 10.9531 6.50781V7.71094C10.9531 7.93098 11.1315 8.10938 11.3516 8.10938C11.5716 8.10938 11.75 7.93098 11.75 7.71094ZM4.34375 7.71094C4.34375 7.93098 4.52214 8.10938 4.74219 8.10938C4.96223 8.10938 5.14062 7.93098 5.14062 7.71094V6.50781C5.14062 6.28777 4.96223 6.10938 4.74219 6.10938C4.52214 6.10938 4.34375 6.28777 4.34375 6.50781V7.71094Z" fill="#EBE8FE"/>
</svg>
