<svg width="50" height="60" viewBox="0 0 50 60" fill="none" xmlns="http://www.w3.org/2000/svg">
<g filter="url(#filter0_d_778_4403)">
<g clip-path="url(#clip0_778_4403)">
<path d="M28.8136 7.56748C26.5291 6.52798 23.9011 6 21.0016 6C18.0811 6 15.4516 6.52798 13.1881 7.56902C12.8132 7.7415 12.6481 8.187 12.8206 8.56352C12.9946 8.9385 13.4371 9.10352 13.8151 8.93105C15.8821 7.98155 18.3001 7.50005 21.0016 7.50005C23.6851 7.50005 26.1031 7.98155 28.1911 8.93252C28.2916 8.979 28.3981 9.00002 28.5016 9.00002C28.7866 9.00002 29.0596 8.83655 29.1856 8.5605C29.3566 8.18398 29.1901 7.73848 28.8136 7.56748Z" fill="#705CF6"/>
<path d="M32.037 13.7235C28.9964 10.6334 25.179 8.99994 20.9985 8.99994C16.8345 8.99994 13.02 10.6334 9.96896 13.7219C9.67794 14.0174 9.68096 14.4929 9.97494 14.7839C10.2705 15.0749 10.7444 15.0704 11.0355 14.7779C13.8 11.979 17.244 10.5 20.9985 10.5C24.768 10.5 28.2165 11.979 30.9674 14.7765C31.1145 14.925 31.308 15 31.5015 15C31.6905 15 31.8809 14.928 32.028 14.784C32.3235 14.493 32.328 14.019 32.037 13.7235Z" fill="#705CF6"/>
<path d="M20.9986 12C19.929 12 18.867 12.132 17.841 12.393C17.4391 12.495 17.1961 12.903 17.298 13.305C17.4 13.707 17.811 13.947 18.21 13.8465C19.1145 13.617 20.0536 13.5 20.9986 13.5C27.2026 13.5 32.2486 18.546 32.2486 24.75C32.2486 25.164 32.5846 25.5 32.9986 25.5C33.4126 25.5 33.7486 25.164 33.7486 24.75C33.7486 17.7195 28.0291 12 20.9986 12Z" fill="#705CF6"/>
<path d="M15.6225 13.992C15.4155 13.6365 14.958 13.515 14.5965 13.7235C13.6395 14.283 12.7501 14.9745 11.9565 15.7785C9.62102 18.1395 8.30554 21.321 8.25154 24.7395C8.24557 25.1535 8.57554 25.494 8.99102 25.5C8.99404 25.5 8.99854 25.5 9.00304 25.5C9.41107 25.5 9.74554 25.173 9.75152 24.762C9.79954 21.732 10.9605 18.9165 13.023 16.8315C13.725 16.1205 14.5095 15.5115 15.354 15.018C15.711 14.8095 15.831 14.3505 15.6225 13.992Z" fill="#705CF6"/>
<path d="M28.3486 18.3495C26.4916 16.221 23.8126 15 20.9985 15C18.3826 15 15.9301 16.026 14.091 17.8875C12.2581 19.7385 11.2501 22.242 11.2501 24.9735C11.2546 26.5876 10.7506 28.5226 9.84753 30.3811L9.42601 31.1311C9.22351 31.4926 9.35099 31.9486 9.71253 32.1526C9.82953 32.2186 9.95553 32.2501 10.0801 32.2501C10.3425 32.2501 10.5976 32.1121 10.734 31.8676L11.1765 31.0786C12.213 28.9456 12.756 26.8337 12.75 24.9347C12.75 22.6382 13.6036 20.5112 15.1561 18.9421C16.7131 17.3671 18.7861 16.5001 20.9985 16.5001C23.379 16.5001 25.647 17.5336 27.2175 19.3366C27.489 19.6486 27.9645 19.6801 28.2765 19.4086C28.5886 19.1355 28.6201 18.6615 28.3486 18.3495Z" fill="#705CF6"/>
<path d="M32.1435 33.396L31.2975 30.6285C30.822 28.458 30.7815 26.3864 30.756 25.1475L30.7485 24.75C30.7485 23.6385 30.561 22.5465 30.192 21.504C30.054 21.114 29.6295 20.91 29.235 21.048C28.8449 21.1861 28.641 21.6136 28.779 22.0051C29.091 22.8856 29.2485 23.8096 29.2485 24.7695L29.2575 25.1776C29.2845 26.4705 29.3264 28.635 29.8484 31.0065L30.7065 33.8325C30.804 34.1565 31.1025 34.3635 31.425 34.3635C31.497 34.3635 31.5705 34.3531 31.644 34.332C32.04 34.2105 32.2635 33.7934 32.1435 33.396Z" fill="#705CF6"/>
<path d="M29.9551 36.861L29.2576 34.6275C28.0201 30.7635 27.7891 26.4195 27.7486 24.75C27.7486 21.0285 24.7201 18 20.9986 18C17.2771 18 14.2501 21.075 14.2501 24.8805C14.2531 25.6695 14.1076 29.838 10.9396 34.407C10.7026 34.7475 10.7881 35.2155 11.1271 35.451C11.4661 35.6865 11.9356 35.6025 12.1711 35.2635C15.5101 30.45 15.7546 26.0955 15.7501 24.8565C15.7501 21.903 18.1051 19.5015 20.9986 19.5015C23.8935 19.5015 26.2486 21.8564 26.2486 24.7695C26.3026 26.9475 26.5801 31.1835 27.8281 35.082L28.5211 37.3065C28.6216 37.6275 28.9171 37.833 29.2381 37.833C29.3115 37.833 29.3866 37.8225 29.4616 37.8C29.8576 37.6755 30.0781 37.2555 29.9551 36.861Z" fill="#705CF6"/>
<path d="M24.7486 24.75C24.7486 22.6831 23.0656 21.0001 20.9986 21.0001C18.9316 21.0001 17.2486 22.6831 17.2486 24.7786C17.2576 25.0261 17.4241 30.9181 12.6601 37.1176C12.4081 37.4461 12.4696 37.9171 12.7981 38.1691C13.1281 38.4226 13.5976 38.3581 13.8496 38.0311C18.9391 31.4071 18.7561 24.9916 18.7471 24.7501C18.7471 23.5096 19.7566 22.5001 20.9971 22.5001C22.2376 22.5001 23.2471 23.5096 23.2486 24.7666C23.2696 25.6067 23.2741 33.1847 17.4181 40.7926C17.1661 41.1211 17.226 41.5921 17.5545 41.8441C17.6926 41.9491 17.853 42.0002 18.0121 42.0002C18.2371 42.0002 18.459 41.8997 18.6061 41.7077C24.7875 33.6795 24.7695 25.6245 24.7486 24.75Z" fill="#705CF6"/>
<path d="M21.7455 24.717C21.726 24.3044 21.402 23.9759 20.964 24.0015C20.5515 24.0195 20.2305 24.369 20.247 24.783C20.247 24.7935 20.289 25.8915 20.01 27.627C19.9455 28.0365 20.2245 28.422 20.6325 28.488C20.673 28.4939 20.7135 28.497 20.7525 28.497C21.114 28.497 21.4335 28.2345 21.492 27.867C21.798 25.9635 21.7485 24.7665 21.7455 24.717Z" fill="#705CF6"/>
<path d="M20.274 30.0525C19.875 29.934 19.4595 30.162 19.341 30.558C18.4036 33.7245 16.8435 36.6855 14.7075 39.3615C14.4495 39.6855 14.502 40.1565 14.826 40.416C14.964 40.527 15.129 40.5794 15.294 40.5794C15.5145 40.5794 15.732 40.4835 15.8805 40.2974C18.138 37.4714 19.7865 34.3379 20.781 30.9854C20.898 30.588 20.6716 30.1695 20.274 30.0525Z" fill="#705CF6"/>
<path d="M27.5431 39.039L26.6386 36.1665C26.2786 35.0895 25.9425 33.951 25.9411 33.9465C25.8511 33.642 25.5811 33.4276 25.2646 33.4096C24.9406 33.3871 24.6541 33.573 24.5311 33.8655C24.5146 33.9046 22.8436 37.8331 20.9281 40.8481C20.7061 41.1976 20.8096 41.6611 21.159 41.8831C21.2836 41.9626 21.4231 42.0001 21.561 42.0001C21.81 42.0001 22.0515 41.8771 22.194 41.6521C23.3536 39.8266 24.4066 37.7281 25.0935 36.2686C25.1325 36.3886 25.173 36.5101 25.2135 36.6301L26.1121 39.4891C26.2366 39.8836 26.6535 40.1056 27.0526 39.9796C27.447 39.855 27.6675 39.435 27.5431 39.039Z" fill="#705CF6"/>
</g>
</g>
<defs>
<filter id="filter0_d_778_4403" x="-5" y="0" width="60" height="60" filterUnits="userSpaceOnUse" color-interpolation-filters="sRGB">
<feFlood flood-opacity="0" result="BackgroundImageFix"/>
<feColorMatrix in="SourceAlpha" type="matrix" values="0 0 0 0 0 0 0 0 0 0 0 0 0 0 0 0 0 0 127 0" result="hardAlpha"/>
<feOffset dx="4" dy="6"/>
<feGaussianBlur stdDeviation="6"/>
<feColorMatrix type="matrix" values="0 0 0 0 0 0 0 0 0 0 0 0 0 0 0 0 0 0 0.08 0"/>
<feBlend mode="normal" in2="BackgroundImageFix" result="effect1_dropShadow_778_4403"/>
<feBlend mode="normal" in="SourceGraphic" in2="effect1_dropShadow_778_4403" result="shape"/>
</filter>
<clipPath id="clip0_778_4403">
<rect x="3" y="6" width="36" height="36" fill="white"/>
</clipPath>
</defs>
</svg>
