<svg width="327" height="226" viewBox="0 0 327 226" fill="none" xmlns="http://www.w3.org/2000/svg">
<path d="M126.571 170.136C123.679 160.117 115.404 152.415 104.73 152.153C98.524 152.002 92.5038 154.67 87.2167 157.716C80.0819 161.824 71.6718 166.783 63.1311 165.54C57.6633 164.739 51.1862 161.663 49.9008 155.304C48.5452 148.578 53.9628 143.962 59.757 141.258C64.7228 138.937 71.6869 133.394 73.9212 128.088C82.7681 107.039 58.0298 83.0139 65.009 59.0245C72.3145 33.9174 106.151 29.6733 123.157 46.7201C124.789 48.3564 126.31 50.0983 127.701 51.946C131.17 56.5676 133.214 62.8608 138.039 66.3296C144.285 70.8203 152.379 69.3805 159.112 66.7172C171.971 61.6223 175.375 58.2592 187.947 52.7716C196.99 48.8246 208.132 45.3054 218.289 48.8095C225.57 51.3217 233.613 55.8427 237.685 62.3825C245.257 74.5459 241.858 87.6507 253.828 104.949C259.25 112.788 267.871 114.983 274.74 120.647C292.544 135.328 286.595 166.28 267.173 176.867C251.227 185.562 231.595 183.578 214.303 181.348C212.977 181.177 211.652 180.996 210.331 180.799" stroke="#ADBBF9" stroke-miterlimit="10" stroke-linejoin="round" stroke-dasharray="3.5 3.5"/>
<path d="M72.3036 75.6031C72.2885 75.2658 72.2584 74.9083 72.2182 74.5307C71.8718 71.4043 69.7378 71.6912 68.4073 71.7869C67.0767 71.8826 65.4248 71.9329 64.7922 70.4779C64.516 69.8436 64.5261 69.0834 64.3453 68.3987C63.9436 66.8833 62.598 65.972 61.3126 65.972C60.0273 65.967 58.8122 66.7071 57.7628 67.6234C57.2155 68.0966 56.5979 68.6554 55.9502 68.4742C55.5335 68.3584 55.2071 67.9607 54.946 67.5378C53.4247 65.0608 53.4347 61.4561 51.7678 59.1251C49.9301 56.5525 46.4907 56.5021 44.166 58.3699C41.8413 60.2377 40.5057 63.5656 39.8932 66.9236C39.6974 68.0161 39.5216 69.2143 38.8538 69.9543C37.8948 71.0166 36.4237 70.6642 35.1433 70.5232C33.6571 70.3571 32.0705 70.5988 30.8655 71.6912C29.8813 72.5824 29.2437 74.1431 29.3642 75.6081H72.3036V75.6031Z" fill="white" stroke="#ADBBF9" stroke-miterlimit="10" stroke-linejoin="round"/>
<path d="M158.308 21.4569H200.575C200.575 21.4569 198.883 19.4834 196.965 18.8088C194.55 17.963 193.551 20.3443 192.024 17.2632C191.171 15.5364 190.573 13.2608 188.324 12.6717C184.809 11.7504 183.915 14.6604 182.238 13.875C180.767 13.1852 180.812 10.4163 179.331 8.10542C177.88 5.84492 174.345 4.4554 171.93 5.63348C167.522 7.78825 168.094 11.2117 166.653 12.3394C165.227 13.4521 161.964 9.53019 158.308 13.7743C155.793 16.6993 158.308 21.4569 158.308 21.4569Z" fill="white" stroke="#ADBBF9" stroke-miterlimit="10" stroke-linejoin="round"/>
<path d="M202.428 6.89216C202.428 7.9192 201.6 8.74989 200.575 8.74989C199.551 8.74989 198.723 7.9192 198.723 6.89216C198.723 5.86512 199.551 5.03442 200.575 5.03442C201.6 5.03442 202.428 5.86512 202.428 6.89216Z" stroke="#ADBBF9" stroke-miterlimit="10" stroke-linejoin="round"/>
<path d="M324.654 156.77C324.654 157.797 323.825 158.627 322.801 158.627C321.777 158.627 320.948 157.797 320.948 156.77C320.948 155.743 321.777 154.912 322.801 154.912C323.825 154.907 324.654 155.743 324.654 156.77Z" stroke="#ADBBF9" stroke-miterlimit="10" stroke-linejoin="round"/>
<path d="M236.074 79.7115C236.074 80.7385 235.245 81.5692 234.221 81.5692C233.197 81.5692 232.368 80.7385 232.368 79.7115C232.368 78.6845 233.197 77.8538 234.221 77.8538C235.245 77.8538 236.074 78.6845 236.074 79.7115Z" stroke="#ADBBF9" stroke-miterlimit="10" stroke-linejoin="round"/>
<path d="M6.68985 101.763C6.68985 102.79 5.86139 103.62 4.83711 103.62C3.81284 103.62 2.98438 102.79 2.98438 101.763C2.98438 100.735 3.81284 99.9048 4.83711 99.9048C5.85637 99.9048 6.68985 100.735 6.68985 101.763Z" stroke="#ADBBF9" stroke-miterlimit="10" stroke-linejoin="round"/>
<path d="M82.3461 32.0498C82.3461 33.0768 81.5176 33.9075 80.4934 33.9075C79.4691 33.9075 78.6406 33.0768 78.6406 32.0498C78.6406 31.0227 79.4691 30.192 80.4934 30.192C81.5176 30.192 82.3461 31.0227 82.3461 32.0498Z" stroke="#ADBBF9" stroke-miterlimit="10" stroke-linejoin="round"/>
<path d="M104.317 23.5917C104.317 24.2915 103.755 24.8553 103.057 24.8553C102.359 24.8553 101.797 24.2915 101.797 23.5917C101.797 22.8919 102.359 22.328 103.057 22.328C103.755 22.328 104.317 22.8919 104.317 23.5917Z" stroke="#ADBBF9" stroke-miterlimit="10" stroke-linejoin="round"/>
<path d="M309.646 113.08C309.646 113.78 309.083 114.344 308.385 114.344C307.687 114.344 307.125 113.78 307.125 113.08C307.125 112.38 307.687 111.817 308.385 111.817C309.083 111.817 309.646 112.38 309.646 113.08Z" stroke="#ADBBF9" stroke-miterlimit="10" stroke-linejoin="round"/>
<path d="M218.053 72.5022C218.749 72.5022 219.314 71.9364 219.314 71.2385C219.314 70.5406 218.749 69.9749 218.053 69.9749C217.357 69.9749 216.793 70.5406 216.793 71.2385C216.793 71.9364 217.357 72.5022 218.053 72.5022Z" stroke="#ADBBF9" stroke-miterlimit="10" stroke-linejoin="round"/>
<path d="M268.9 39.4303C268.9 40.1301 268.338 40.694 267.64 40.694C266.942 40.694 266.38 40.1301 266.38 39.4303C266.38 38.7305 266.942 38.1666 267.64 38.1666C268.338 38.1666 268.9 38.7305 268.9 39.4303Z" stroke="#ADBBF9" stroke-miterlimit="10" stroke-linejoin="round"/>
<path d="M240.013 30.9673C240.013 31.6671 239.45 32.2309 238.752 32.2309C238.055 32.2309 237.492 31.6671 237.492 30.9673C237.492 30.2675 238.055 29.7036 238.752 29.7036C239.45 29.7036 240.013 30.2675 240.013 30.9673Z" stroke="#ADBBF9" stroke-miterlimit="10" stroke-linejoin="round"/>
<path d="M266.214 132.04C266.214 132.74 265.652 133.304 264.954 133.304C264.256 133.304 263.693 132.74 263.693 132.04C263.693 131.34 264.256 130.776 264.954 130.776C265.652 130.771 266.214 131.34 266.214 132.04Z" stroke="#ADBBF9" stroke-miterlimit="10" stroke-linejoin="round"/>
<path d="M70.542 144.143C70.542 144.843 69.9797 145.407 69.2817 145.407C68.5838 145.407 68.0215 144.843 68.0215 144.143C68.0215 143.443 68.5838 142.879 69.2817 142.879C69.9797 142.879 70.542 143.443 70.542 144.143Z" stroke="#ADBBF9" stroke-miterlimit="10" stroke-linejoin="round"/>
<path d="M74.3281 86.3872C74.3281 87.087 73.7658 87.6509 73.0679 87.6509C72.37 87.6509 71.8076 87.087 71.8076 86.3872C71.8076 85.6874 72.37 85.1235 73.0679 85.1235C73.7658 85.1235 74.3281 85.6924 74.3281 86.3872Z" stroke="#ADBBF9" stroke-miterlimit="10" stroke-linejoin="round"/>
<path d="M317.403 94.9962H315.716C315.415 94.9962 315.169 94.7495 315.169 94.4474V92.7558C315.169 92.4537 315.415 92.207 315.716 92.207H317.403C317.705 92.207 317.951 92.4537 317.951 92.7558V94.4474C317.951 94.7495 317.705 94.9962 317.403 94.9962Z" fill="#E4E9F9"/>
<path d="M57.7539 153.185H56.0668C55.7656 153.185 55.5195 152.938 55.5195 152.636V150.945C55.5195 150.643 55.7656 150.396 56.0668 150.396H57.7539C58.0551 150.396 58.3012 150.643 58.3012 150.945V152.636C58.3062 152.938 58.0601 153.185 57.7539 153.185Z" fill="#E4E9F9"/>
<path d="M54.8203 50.2092H53.1332C52.832 50.2092 52.5859 49.9625 52.5859 49.6604V47.9688C52.5859 47.6667 52.832 47.42 53.1332 47.42H54.8203C55.1215 47.42 55.3676 47.6667 55.3676 47.9688V49.6604C55.3676 49.9625 55.1215 50.2092 54.8203 50.2092Z" fill="#E4E9F9"/>
<path d="M241.305 111.263H239.618C239.316 111.263 239.07 111.016 239.07 110.714V109.022C239.07 108.72 239.316 108.474 239.618 108.474H241.305C241.606 108.474 241.852 108.72 241.852 109.022V110.714C241.852 111.016 241.606 111.263 241.305 111.263Z" fill="#E4E9F9"/>
<path d="M202.879 91.2053C202.894 90.9636 202.914 90.7068 202.949 90.435C203.23 88.1896 204.983 88.396 206.077 88.4665C207.167 88.537 208.522 88.5722 209.045 87.525C209.271 87.0719 209.261 86.5232 209.411 86.0348C209.743 84.9474 210.847 84.2929 211.902 84.2929C212.956 84.2929 213.95 84.8215 214.814 85.476C217.615 87.6056 218.419 82.0022 219.749 80.376C221.261 78.5284 224.072 77.4963 225.98 78.8355C227.888 80.1746 228.988 82.561 229.485 84.9725C229.646 85.7579 229.706 86.7145 230.339 87.1474C232.191 88.4161 234.576 85.9543 236.816 87.8674C237.599 88.537 237.75 90.153 237.649 91.2053H202.879V91.2053Z" fill="white" stroke="#ADBBF9" stroke-miterlimit="10" stroke-linejoin="round"/>
<path d="M64.5716 206.288C58.2753 196.768 45.0953 172.708 56.523 164.432C62.7942 159.885 71.109 164.024 75.1308 174.047C78.9467 183.568 80.4078 194.815 81.9994 206.153" fill="white"/>
<path d="M64.7069 206.214C61.6943 201.587 58.983 196.734 56.7336 191.689C54.2984 186.221 52.0591 180.135 52.2197 174.053C52.3654 168.611 55.6641 163.038 61.6391 162.801C69.1856 162.504 73.6744 170.398 75.8284 176.52C79.1824 186.065 80.3924 196.24 81.7933 206.214C81.8334 206.485 82.2401 206.37 82.2 206.103C80.8393 196.406 79.6493 186.549 76.5213 177.23C74.4426 171.042 70.6216 163.581 63.4266 162.504C58.0943 161.703 53.4499 165.635 52.2499 170.685C50.8691 176.495 52.8072 182.868 54.8959 188.265C57.3562 194.624 60.655 200.711 64.4358 206.375C64.5462 206.536 64.8174 206.38 64.7069 206.214Z" fill="#ADBBF9"/>
<path d="M59.7568 163.008L74.5988 206.319" stroke="#ADBBF9" stroke-miterlimit="10" stroke-linejoin="round"/>
<path d="M39.3309 206.299C33.8982 199.255 22.0286 181.458 31.8848 175.336C37.2974 171.973 43.9652 175.034 47.4347 182.45C50.7285 189.493 51.9887 197.815 53.3595 206.198" fill="white"/>
<path d="M39.4661 206.219C36.9506 202.896 34.6008 199.422 32.6024 195.762C30.4735 191.86 28.3898 187.435 28.2944 182.904C28.199 178.403 31.1815 174.592 35.8208 174.209C41.6402 173.726 45.7272 178.942 47.7808 183.744C50.8285 190.863 51.9131 198.667 53.1583 206.259C53.2035 206.526 53.6102 206.415 53.565 206.148C52.3449 198.677 51.2603 191.019 48.3381 183.981C46.3749 179.254 42.8 174.275 37.2619 173.806C33.1296 173.459 29.0526 176.162 28.1438 180.276C27.1848 184.61 29.0024 189.293 30.835 193.144C33.0794 197.871 36.0116 202.297 39.2251 206.415C39.3305 206.546 39.5715 206.359 39.4661 206.219Z" fill="#ADBBF9"/>
<path d="M34.6777 174.28L47.4812 206.319" stroke="#ADBBF9" stroke-miterlimit="10" stroke-linejoin="round"/>
<path d="M102.838 206.199C87.9604 179.133 78.3452 152.304 90.3554 139.557C102.25 126.925 114.697 141.893 117.725 155.154C121.435 171.395 121.972 188.981 121.897 206.199" fill="white"/>
<path d="M102.838 206.199C87.9604 179.133 78.3452 152.304 90.3554 139.557C102.25 126.925 114.697 141.893 117.725 155.154C121.435 171.395 121.972 188.981 121.897 206.199" stroke="#ADBBF9" stroke-miterlimit="10" stroke-linejoin="round"/>
<path d="M94.7578 136.269L112.632 206.158" stroke="#ADBBF9" stroke-miterlimit="10" stroke-linejoin="round"/>
<path d="M80.5078 206.284C74.5981 191.966 61.3026 163.007 70.6768 154.051C76.6718 148.326 87.502 155.344 93.0703 167.855C98.3624 179.737 99.949 191.966 103.122 206.112" fill="white"/>
<path d="M80.6592 206.244C77.8525 199.362 74.8951 192.55 72.4298 185.537C69.9545 178.499 67.4791 170.876 67.6298 163.325C67.685 160.551 68.172 157.595 69.844 155.31C71.7721 152.682 74.875 151.74 77.983 152.536C81.6333 153.472 84.7312 156.095 87.1664 158.874C90.4852 162.66 92.7095 167.166 94.4869 171.848C98.6744 182.894 100.356 194.695 102.922 206.173C102.982 206.44 103.389 206.329 103.329 206.063C100.889 195.123 99.2468 183.911 95.4761 173.318C92.6543 165.384 88.1455 156.312 79.9512 152.792C77.3152 151.66 74.2273 151.373 71.7168 152.984C69.4624 154.434 68.1971 156.926 67.6448 159.493C66.962 162.685 67.1929 166.028 67.6649 169.23C68.2574 173.268 69.3218 177.225 70.5419 181.112C73.2533 189.731 76.8684 198.012 80.3529 206.329C80.4383 206.506 80.7345 206.43 80.6592 206.244Z" fill="#ADBBF9"/>
<path d="M195.836 206.203C190.82 148.583 203.026 127.534 216.382 126.592C222.708 126.144 241.235 129.799 218.867 206.168" fill="white"/>
<path d="M195.931 206.203C194.696 187.233 193.431 167.518 198.311 148.911C200.425 140.845 204.391 130.439 213.058 127.464C216.477 126.291 220.363 126.507 223.26 128.823C228.382 132.921 229.175 140.896 229.371 146.942C229.587 153.724 228.854 160.53 227.809 167.221C226.243 177.295 223.883 187.238 221.217 197.076C220.398 200.097 219.545 203.112 218.716 206.133C218.666 206.319 218.952 206.4 219.007 206.214C222.402 195.284 225.183 184.082 227.257 172.825C228.623 165.419 229.677 157.902 229.787 150.361C229.853 145.774 229.602 141.062 228.326 136.632C227.573 134.024 226.418 131.426 224.51 129.452C222.055 126.91 218.626 125.994 215.191 126.542C206.806 127.877 202.067 136.46 199.496 143.74C197.081 150.577 195.911 157.827 195.233 165.026C194.239 175.568 194.364 186.206 194.987 196.764C195.173 199.915 195.394 203.067 195.73 206.209C195.75 206.329 195.941 206.334 195.931 206.203Z" fill="#ADBBF9"/>
<path d="M218.982 126.724L207.183 206.168" stroke="#ADBBF9" stroke-miterlimit="10" stroke-linejoin="round"/>
<path fill-rule="evenodd" clip-rule="evenodd" d="M86.9347 54.435L89.3959 53.8142L89.7275 55.1556L87.8141 55.6382C88.0941 56.162 88.2612 56.5337 88.3154 56.7532C88.3778 57.0055 88.4066 57.4616 88.4017 58.1212L88.5346 58.1316C88.7239 58.148 88.8973 58.164 89.0546 58.1796C89.212 58.1953 89.356 58.2099 89.4869 58.2235C90.2182 58.3246 90.7366 58.3367 91.0419 58.2597C91.2762 58.2006 91.4602 58.0667 91.5941 57.8581C91.665 57.747 91.7368 57.5978 91.8093 57.4104C91.8816 57.2232 91.957 56.9944 92.0349 56.7241L93.7835 57.2621C93.6123 58.1389 93.3504 58.7907 92.9985 59.2174C92.6438 59.6565 92.1502 59.9558 91.518 60.1153C91.06 60.2308 90.3222 60.245 89.3047 60.1578C88.3075 60.0364 87.6263 60.0217 87.2611 60.1138C86.9613 60.1894 86.7418 60.3206 86.6026 60.5072C86.4634 60.6939 86.3418 61.045 86.2377 61.5608L84.3968 61.1422C84.7018 60.197 84.9757 59.5713 85.2185 59.2652C85.4982 58.8974 85.9215 58.6071 86.4886 58.3941C86.5124 57.9278 86.4807 57.519 86.394 57.1678C86.3004 56.7893 86.1142 56.4458 85.8353 56.1374L83.6766 56.6819L83.3451 55.3404L84.825 54.9671C84.0347 54.0417 83.5465 53.2033 83.3607 52.4515C83.0909 51.3599 83.27 50.327 83.8978 49.3526C84.5364 48.3755 85.4391 47.7398 86.6057 47.4456C87.7777 47.1499 88.8355 47.2941 89.779 47.8779C90.725 48.4493 91.3481 49.3413 91.6477 50.5537L89.9481 51.7255C89.7217 50.8093 89.4703 50.1908 89.1942 49.87C88.6541 49.2312 87.9369 49.0244 87.043 49.2498C86.3833 49.4162 85.8945 49.7698 85.5765 50.3104C85.2571 50.8454 85.1801 51.4477 85.3455 52.1171C85.4838 52.6766 85.9707 53.4048 86.8061 54.3014C86.8211 54.3151 86.8384 54.3325 86.8582 54.3538C86.8777 54.3751 86.9034 54.4022 86.9347 54.435" fill="#E4E9F9"/>
<path fill-rule="evenodd" clip-rule="evenodd" d="M210.952 14.6623L213.414 14.0415L213.745 15.3829L211.832 15.8655C212.112 16.3893 212.279 16.761 212.333 16.9804C212.395 17.2328 212.424 17.6889 212.419 18.3485L212.552 18.3589C212.741 18.3753 212.915 18.3913 213.072 18.4068C213.23 18.4226 213.374 18.4372 213.504 18.4508C214.236 18.5519 214.754 18.564 215.06 18.487C215.294 18.4279 215.478 18.294 215.612 18.0854C215.683 17.9743 215.754 17.8251 215.827 17.6377C215.899 17.4505 215.975 17.2217 216.053 16.9514L217.801 17.4894C217.63 18.3662 217.368 19.0179 217.016 19.4447C216.661 19.8838 216.168 20.1831 215.536 20.3426C215.078 20.4581 214.34 20.4723 213.322 20.3851C212.325 20.2637 211.644 20.249 211.279 20.3411C210.979 20.4167 210.759 20.5479 210.62 20.7345C210.481 20.9212 210.359 21.2723 210.255 21.7881L208.414 21.3695C208.719 20.4243 208.993 19.7985 209.236 19.4925C209.516 19.1247 209.939 18.8344 210.506 18.6214C210.53 18.1551 210.498 17.7463 210.412 17.3951C210.318 17.0166 210.132 16.6731 209.853 16.3647L207.694 16.9092L207.363 15.5677L208.843 15.1944C208.052 14.269 207.564 13.4306 207.378 12.6788C207.109 11.5872 207.288 10.5543 207.915 9.57986C208.554 8.60284 209.457 7.96712 210.623 7.67287C211.795 7.37724 212.853 7.52135 213.797 8.10517C214.743 8.67662 215.366 9.5686 215.665 10.781L213.966 11.9528C213.739 11.0366 213.488 10.4181 213.212 10.0973C212.672 9.45851 211.954 9.25166 211.061 9.47713C210.401 9.64353 209.912 9.99712 209.594 10.5376C209.275 11.0727 209.198 11.675 209.363 12.3444C209.501 12.9039 209.988 13.6321 210.824 14.5287C210.839 14.5424 210.856 14.5598 210.876 14.5811C210.895 14.6024 210.921 14.6295 210.952 14.6623" fill="#E4E9F9"/>
<path d="M235.306 206.208C239.398 171.963 253.175 152.223 265.622 157.58C275.805 161.96 270.553 181.025 254.687 206.183" fill="white"/>
<path d="M235.401 206.234C236.942 196.144 238.74 186.156 242.621 176.661C245.197 170.368 248.707 163.586 254.335 159.498C258.146 156.729 263.549 155.722 267.47 158.909C272.049 162.625 270.799 169.965 269.513 174.904C266.591 186.136 260.426 196.235 254.556 206.108C254.456 206.279 254.712 206.42 254.817 206.259C258.226 201.124 261.264 195.691 263.98 190.158C266.099 185.844 268.022 181.398 269.393 176.787C270.919 171.667 272.606 164.326 268.831 159.725C265.803 156.039 260.33 155.808 256.318 157.827C250.574 160.722 246.784 166.889 244.077 172.487C241.783 177.23 240.065 182.239 238.7 187.324C237.048 193.481 235.768 199.85 235.205 206.203C235.2 206.319 235.386 206.344 235.401 206.234Z" fill="#ADBBF9"/>
<g filter="url(#filter0_d_3015_8932)">
<path d="M107.231 201.2C102.826 201.149 99.2926 197.064 99.3386 192.074L100.838 29.1734C100.884 24.1832 104.492 20.1787 108.896 20.2289L190.153 21.1546C194.558 21.2048 198.091 25.2905 198.046 30.2807L196.546 193.181C196.5 198.171 192.893 202.176 188.488 202.125L107.231 201.2Z" fill="white"/>
<path d="M189.433 24.684C192.711 24.684 195.359 27.7146 195.359 31.465V194.701C195.359 198.451 192.711 201.482 189.433 201.482H108.813C105.535 201.482 102.886 198.451 102.886 194.701V31.465C102.886 27.7146 105.535 24.684 108.813 24.684H189.433ZM189.433 20.1381H108.813C103.35 20.1381 98.9131 25.2143 98.9131 31.465V194.701C98.9131 200.951 103.35 206.028 108.813 206.028H189.433C194.896 206.028 199.333 200.951 199.333 194.701V31.465C199.333 25.2143 194.896 20.1381 189.433 20.1381Z" fill="#3629B7"/>
</g>
<path d="M118.997 26.115V23.2365H177.704V26.6547C176.88 28.5257 173.756 29.2334 172.297 29.3533C157.792 29.4133 127.855 29.4972 124.147 29.3533C120.439 29.2094 119.169 27.1344 118.997 26.115Z" fill="#3629B7"/>
<path d="M265.622 157.58L245.257 206.188" stroke="#ADBBF9" stroke-miterlimit="10" stroke-linejoin="round"/>
<path d="M73.9209 152.274L92.1169 206.319" stroke="#ADBBF9" stroke-miterlimit="10" stroke-linejoin="round"/>
<path d="M236.826 206.273C244.87 189.171 261.097 150.124 248.876 136.279C242.168 128.676 229.887 138.01 223.375 154.775C217.189 170.695 212.56 187.087 208.724 206.047" fill="white"/>
<path d="M236.957 206.349C241.169 197.464 244.955 188.341 248.013 178.992C251.161 169.356 254.038 158.904 253.4 148.664C253.009 142.386 250.036 132.206 241.847 133.51C237.414 134.22 233.698 137.714 230.947 141.042C226.91 145.93 224.304 151.639 222.09 157.535C216.18 173.268 211.857 189.529 208.513 205.992C208.458 206.259 208.869 206.375 208.92 206.103C211.777 192.036 215.331 178.111 220.016 164.538C222.2 158.214 224.384 151.77 227.899 146.051C230.555 141.732 234.045 137.331 238.659 135.005C242.239 133.203 246.165 133.42 248.877 136.581C251.422 139.552 252.512 143.514 252.898 147.335C253.887 157.052 251.307 167.105 248.465 176.314C245.302 186.549 241.209 196.487 236.691 206.193C236.605 206.375 236.871 206.531 236.957 206.349Z" fill="#ADBBF9"/>
<path d="M245.257 133.893L223.742 206.319" stroke="#ADBBF9" stroke-miterlimit="10" stroke-linejoin="round"/>
<path d="M251.031 206.209C261.636 184.651 270.844 178.947 279.49 180.669C286.213 182.008 287.263 191.966 273.053 206.194" fill="white"/>
<path d="M251.112 206.259C254.395 200.394 257.363 194.433 261.731 189.262C264.427 186.07 267.656 183.035 271.617 181.519C274.379 180.467 278.019 180.039 280.801 181.283C283.904 182.667 284.421 186.211 283.808 189.227C282.448 195.913 277.376 201.249 272.948 206.093C272.817 206.239 273.018 206.44 273.164 206.309C277.678 202.115 282.176 196.557 283.904 190.516C284.747 187.566 284.863 183.815 282.242 181.705C279.957 179.873 276.302 179.928 273.591 180.532C269.649 181.413 266.275 183.936 263.498 186.78C261.259 189.071 259.321 191.654 257.559 194.322C255.088 198.058 252.738 202.04 250.956 206.163C250.896 206.269 251.051 206.37 251.112 206.259Z" fill="#ADBBF9"/>
<path d="M278.651 180.814L262.448 206.193" stroke="#ADBBF9" stroke-miterlimit="10" stroke-linejoin="round"/>
<path d="M23.1582 206.344H303.103" stroke="#849CF4" stroke-miterlimit="10"/>
<path d="M287.678 192.334L288.551 206.702L288.084 211.223L270.998 211.132C270.566 211.132 270.22 210.78 270.22 210.347C270.22 210.025 270.421 209.733 270.722 209.617L278.344 206.103L276.621 191.15" fill="#FFCBBD"/>
<path d="M269.446 210.941C269.627 210.372 269.959 209.738 270.295 209.592L278.379 206.103C282.832 207.915 288.601 206.531 288.601 206.531L289.043 212.633C289.043 212.834 288.878 212.995 288.677 212.995L269.587 212.894C269.185 212.889 269.441 210.956 269.446 210.941Z" fill="#FF4267"/>
<path d="M276.627 206.45C277.079 207.044 277.46 207.689 277.767 208.368" stroke="#B22B19" stroke-width="0.75" stroke-miterlimit="10"/>
<path d="M275.607 207.059C276.074 207.709 276.265 208.086 276.546 208.691" stroke="#B22B19" stroke-width="0.75" stroke-miterlimit="10"/>
<path d="M274.748 207.508C275.064 207.936 275.381 208.53 275.627 209.003" stroke="#B22B19" stroke-width="0.75" stroke-miterlimit="10"/>
<path d="M288.933 211.676L269.361 211.57" stroke="#B22B19" stroke-width="0.75" stroke-miterlimit="10"/>
<path d="M288.757 208.756C288.757 208.756 284.223 208.786 283.816 211.646" stroke="#B22B19" stroke-width="0.75" stroke-miterlimit="10"/>
<path d="M271.947 208.877C271.947 208.877 273.253 210.74 273.509 211.596" stroke="#B22B19" stroke-width="0.75" stroke-miterlimit="10"/>
<path d="M274.253 137.115C274.253 137.115 271.798 157.339 272.736 172.024C273.675 186.71 275.031 203.752 275.031 203.752H289.883C289.883 203.752 287.96 178.534 288.171 166.733C288.407 153.653 292.394 137.12 292.394 137.12" fill="#3629B7"/>
<path d="M286.871 203.747C286.871 203.747 284.948 178.529 285.159 166.728C285.395 153.648 289.381 137.115 289.381 137.115" stroke="#121649" stroke-width="0.75" stroke-miterlimit="10"/>
<path d="M307.19 173.086L320.963 177.527L325.12 179.339L319.868 195.641C319.738 196.054 319.296 196.28 318.884 196.144C318.578 196.044 318.362 195.767 318.342 195.44L317.308 187.092L303.008 182.43" fill="#FFCBBD"/>
<path d="M319.216 197.071C318.729 196.728 318.227 196.215 318.192 195.852L317.318 187.072C320.386 183.362 320.813 177.431 320.813 177.431L326.748 178.856C326.939 178.916 327.044 179.123 326.984 179.314L321.114 197.529C320.989 197.907 319.231 197.081 319.216 197.071Z" fill="#FF4267"/>
<path d="M317.117 188.849C317.815 188.598 318.548 188.427 319.286 188.341" stroke="#B22B19" stroke-width="0.75" stroke-miterlimit="10"/>
<path d="M317.389 190.008C318.152 189.756 318.564 189.69 319.221 189.605" stroke="#B22B19" stroke-width="0.75" stroke-miterlimit="10"/>
<path d="M317.554 190.965C318.056 190.788 318.719 190.672 319.241 190.576" stroke="#B22B19" stroke-width="0.75" stroke-miterlimit="10"/>
<path d="M325.808 178.67L319.788 197.338" stroke="#B22B19" stroke-width="0.75" stroke-miterlimit="10"/>
<path d="M322.981 177.955C322.981 177.955 321.64 182.295 324.236 183.548" stroke="#B22B19" stroke-width="0.75" stroke-miterlimit="10"/>
<path d="M318.01 194.05C318.01 194.05 320.174 193.365 321.068 193.38" stroke="#B22B19" stroke-width="0.75" stroke-miterlimit="10"/>
<path d="M298.434 137.764C298.434 137.764 299.77 143.514 299.77 145.981C299.77 147.793 299.052 149.027 298.67 150.351C298.505 150.92 298.414 151.499 298.389 152.088C298.274 154.731 298.123 162.152 299.775 165.681C301.803 170.015 318.694 175.77 318.694 175.77L314.411 188.704C314.411 188.704 288.553 182.189 285.33 174.255C280.831 163.184 282.116 137.769 282.116 137.769" fill="#3629B7"/>
<path d="M288.443 177.955C286.952 176.772 285.842 175.528 285.325 174.249C280.826 163.179 282.111 137.764 282.111 137.764" stroke="#121649" stroke-width="0.75" stroke-miterlimit="10"/>
<path d="M296.24 137.286C296.24 137.286 297.756 144.521 297.756 146.988C297.756 148.835 297.008 150.134 296.631 151.433C296.481 151.957 296.39 152.495 296.355 153.044C296.195 155.657 295.908 163.224 297.756 166.693C300.312 171.496 318.006 177.819 318.006 177.819" stroke="#121649" stroke-width="0.75" stroke-miterlimit="10"/>
<path d="M280.002 139.179C280.002 139.179 279.776 144.4 280.504 145.024C281.232 145.649 281.94 146.066 281.94 146.066" stroke="#121649" stroke-width="0.75" stroke-miterlimit="10"/>
<path d="M316.559 175.005L311.845 188.004" stroke="#121649" stroke-width="0.75" stroke-miterlimit="10"/>
<path d="M274.83 201.184H289.697" stroke="#121649" stroke-width="0.75" stroke-miterlimit="10"/>
<path d="M292.168 138.162C292.168 138.162 293.092 141.495 297.219 142.477" stroke="#121649" stroke-width="0.75" stroke-miterlimit="10"/>
<path d="M273.775 141.898C273.775 141.898 277.501 140.805 278.646 138.167" stroke="#121649" stroke-width="0.75" stroke-miterlimit="10"/>
<path d="M282.764 97.8357L282.096 102.523C282.096 102.523 282.036 103.822 284.556 104.723C287.604 105.82 289.457 103.464 289.457 103.464L289.256 98.7218" fill="#FFCBBB"/>
<path d="M282.392 91.6232C282.392 91.6232 279.153 97.0504 281.402 99.2203C283.441 101.189 287.925 99.9554 288.336 99.2656C288.743 98.5759 291.299 92.5144 289.903 91.6786C287.413 90.1934 283.777 89.2872 282.392 91.6232Z" fill="#FFCBBB"/>
<path d="M282.422 100.233C282.422 100.233 284.616 100.939 286.645 100.051" stroke="#EF977F" stroke-miterlimit="10"/>
<path d="M281.849 88.094C282.276 84.887 286.152 87.2885 287.729 88.7485C288.201 89.1865 290.968 90.0021 291.419 90.4653C291.871 90.9284 292.233 91.4973 292.353 92.1367C292.459 92.6956 292.368 93.2695 292.233 93.8183C291.992 94.8101 291.6 95.7565 291.214 96.698C290.792 97.725 290.034 99.769 288.572 99.5576C288.291 99.5173 287.98 99.4619 287.794 99.2455C287.608 99.029 287.603 98.7168 287.634 98.4349C287.684 97.9768 287.824 97.5287 288.035 97.1209C287.734 97.2014 287.423 97.3877 287.131 97.2719C287.036 97.2317 286.991 97.141 286.936 97.0504C286.745 96.7383 286.976 94.6641 287.94 93.8485C286.549 93.1889 285.46 93.1285 284.044 92.5294C282.904 92.0461 282.412 91.4621 282.005 90.9133C281.413 90.128 281.719 89.0657 281.849 88.094Z" fill="#4A1A1A"/>
<path d="M287.689 96.9345C288.045 96.4361 288.587 95.8622 289.11 96.3858C289.295 96.5721 289.346 96.8792 289.366 97.1762C289.431 98.1529 288.442 99.4014 287.583 99.0591C287.162 98.893 287.046 98.319 286.971 97.8458" fill="#FFCBBB"/>
<path d="M283.105 94.0195C283.105 94.0195 281.704 95.399 281.704 95.8672C281.704 96.3354 282.753 96.6274 282.753 96.6274" stroke="#F7A794" stroke-width="0.5" stroke-miterlimit="10"/>
<path d="M281.177 96.7936L283.687 97.735C283.687 97.735 283.105 99.2252 281.599 98.5406C280.524 98.0522 281.177 96.7936 281.177 96.7936Z" fill="white"/>
<path d="M282.04 93.2494C281.965 93.3602 281.895 93.4709 281.829 93.5918C281.704 93.8183 282.055 94.0197 282.171 93.7931C282.241 93.6622 282.301 93.5263 282.357 93.3853C282.432 93.184 282.146 93.0984 282.04 93.2494Z" fill="#212237"/>
<path d="M283.12 92.7718C283.12 92.7718 282.809 92.0706 282.061 92.3985" stroke="#212237" stroke-width="0.5" stroke-miterlimit="10" stroke-linecap="round" stroke-linejoin="round"/>
<path d="M285.174 94.7597C285.104 94.8755 285.043 94.9913 284.983 95.1121C284.873 95.3437 285.224 95.5451 285.325 95.3135C285.385 95.1776 285.44 95.0366 285.49 94.8956C285.551 94.6993 285.274 94.5935 285.174 94.7597Z" fill="#212237"/>
<path d="M285.279 93.6017C285.279 93.6017 286.042 93.5161 286.595 94.523" stroke="#212237" stroke-width="0.5" stroke-miterlimit="10" stroke-linecap="round" stroke-linejoin="round"/>
<path d="M271.904 77.3198C271.698 74.5962 272.065 66.8883 271.588 66.687C271.111 66.4856 270.915 69.0934 270.553 68.8568C270.192 68.6152 270.222 64.5775 269.695 64.502C268.977 64.4013 269.167 68.5346 269.167 68.5346C269.167 68.5346 268.736 64.0136 268.083 64.1042C267.626 64.1697 267.797 67.6334 267.696 68.9676C267.621 67.5076 267.194 64.794 266.717 64.8745C266.245 64.95 266.336 67.6788 266.295 69.4912C266.215 68.3584 265.989 65.8814 265.547 65.9318C265.105 65.9821 264.97 72.4213 264.965 77.8485" fill="#FFCBBD"/>
<path d="M271.22 104.587C271.22 104.587 268.303 98.4649 266.48 91.331C264.658 84.1921 264.979 74.9135 264.979 74.9135L271.827 76.0714C271.827 76.0714 272.139 89.0252 279.936 101.883" fill="#FFCBBD"/>
<path d="M266.391 69.8035C266.953 70.6644 267.701 71.6763 267.666 73.3578" stroke="#F7A794" stroke-miterlimit="10"/>
<path d="M270.498 69.4762C269.84 70.0652 269.127 71.6511 269.468 72.4667" stroke="#F7A794" stroke-miterlimit="10"/>
<path d="M282.191 101.858C280.153 101.858 276.974 95.3234 276.974 95.3234L268.79 101.425C268.79 101.425 271.406 109.586 275.839 114.757" fill="#FF4267"/>
<path d="M277.657 96.6274L269.317 102.905" stroke="#B22B19" stroke-width="0.75" stroke-miterlimit="10"/>
<path opacity="0.3" d="M300.913 66.7432L274.642 82.8039C273.162 82.065 271.813 81.1352 270.617 80.055L300.372 62.116C300.746 63.6099 300.933 65.1634 300.913 66.7432Z" fill="white"/>
<path opacity="0.3" d="M294.447 52.604L265.015 70.3675C264.935 69.9976 264.866 69.625 264.81 69.2495L293.414 51.793C293.769 52.0517 294.114 52.3216 294.447 52.604Z" fill="white"/>
<path opacity="0.3" d="M298.774 57.9669L267.797 76.8278C267.551 76.468 267.317 76.0994 267.098 75.7222L298.15 56.886C298.371 57.2391 298.579 57.5992 298.774 57.9669Z" fill="white"/>
<path opacity="0.2" d="M296.843 69.5796L278.78 80.5107C277.11 80.0345 275.588 79.2795 274.252 78.3072L296.623 64.7687C296.958 66.3209 297.042 67.9425 296.843 69.5796Z" fill="#FBE6A1"/>
<path opacity="0.2" d="M289.916 55.3607L268.374 68.396C268.313 67.9401 268.275 67.477 268.26 67.0136L288.644 54.6777C289.081 54.8841 289.506 55.1128 289.916 55.3607Z" fill="#FBE6A1"/>
<path opacity="0.2" d="M294.837 60.2846L270.841 74.8062C270.606 74.4659 270.386 74.1167 270.179 73.756L294.15 59.2491C294.393 59.5832 294.623 59.9285 294.837 60.2846Z" fill="#FBE6A1"/>
<path d="M300.381 70.892C297.977 80.6455 288.14 86.6005 278.407 84.1902C277.077 83.8608 275.818 83.3927 274.641 82.8039C273.162 82.065 271.813 81.1352 270.617 80.055C269.549 79.091 268.605 78.0055 267.798 76.8279C267.552 76.4681 267.318 76.0995 267.098 75.7223C266.131 74.0681 265.423 72.2615 265.015 70.368C264.935 69.998 264.866 69.6255 264.81 69.2499C264.462 66.9562 264.55 64.5568 265.139 62.165C265.193 61.9465 265.252 61.7289 265.315 61.5127C267.986 52.1472 277.601 46.5112 287.114 48.8664C289.455 49.446 291.576 50.4571 293.414 51.7931C293.769 52.0514 294.114 52.3213 294.448 52.6037C295.906 53.8347 297.153 55.2829 298.152 56.8854C298.372 57.2386 298.58 57.5986 298.776 57.9663C299.472 59.2733 300.01 60.6662 300.373 62.1153C300.746 63.6093 300.933 65.1628 300.913 66.7426C300.898 67.8962 300.773 69.0636 300.529 70.2324C300.485 70.4539 300.435 70.6738 300.381 70.892Z" fill="#FDD462"/>
<path d="M296.844 70.0166C296.791 70.2332 296.732 70.4484 296.671 70.661C294.486 78.0616 286.831 82.5147 279.281 80.6453C271.731 78.7758 267.026 71.2617 268.531 63.6926C268.576 63.4761 268.623 63.2579 268.677 63.0413C270.596 55.2573 278.474 50.4895 286.24 52.4126C294.006 54.3354 298.763 62.2323 296.844 70.0166Z" fill="#F37E00"/>
<path d="M296.672 70.661C294.487 78.0615 286.832 82.5147 279.282 80.6452C279.112 80.6034 278.947 80.558 278.781 80.5106C277.111 80.0343 275.59 79.2793 274.253 78.307C272.917 77.3344 271.766 76.1469 270.842 74.806C270.607 74.4657 270.386 74.1165 270.179 73.7558C269.244 72.1177 268.621 70.2999 268.375 68.3959C268.314 67.94 268.276 67.4769 268.261 67.0135C268.222 65.9191 268.311 64.8063 268.531 63.6929C270.716 56.2924 278.371 51.8372 285.921 53.7067C286.876 53.9433 287.786 54.2708 288.645 54.678C289.082 54.8843 289.507 55.1131 289.917 55.3609C291.593 56.3713 293.024 57.702 294.15 59.2493C294.393 59.5833 294.623 59.9286 294.838 60.2847C295.672 61.6618 296.28 63.1771 296.624 64.7688C296.959 66.3207 297.043 67.9423 296.844 69.5798C296.802 69.9388 296.743 70.3006 296.672 70.661Z" fill="#F7A219"/>
<path d="M282.745 75.0227L282.167 77.3681L279.194 76.6322L279.746 74.3924C277.669 73.7437 275.765 72.6668 274.693 71.5718L277.191 68.3341C278.379 69.5025 280.104 70.4902 281.727 70.8921C283.14 71.242 283.719 71.0715 283.844 70.5643C284.302 68.705 275.774 68.185 277.133 62.6701C277.722 60.2826 279.945 58.7034 283.522 59.0733L284.09 56.7704L287.062 57.5063L286.505 59.7671C288.029 60.3013 289.447 61.0787 290.482 62.0523L288.095 65.2946C286.823 64.1949 285.541 63.4965 284.255 63.1779C282.801 62.8179 282.233 63.1256 282.108 63.6325C281.67 65.4075 290.193 65.9486 288.849 71.3996C288.287 73.6825 286.153 75.2613 282.745 75.0227Z" fill="#F37E00"/>
<path d="M282.85 74.2209L282.272 76.5663L279.3 75.8304L279.852 73.5906C277.775 72.9419 275.871 71.865 274.799 70.77L277.297 67.5323C278.485 68.701 280.21 69.6884 281.833 70.0903C283.245 70.4402 283.824 70.2693 283.949 69.7625C284.408 67.9032 275.88 67.3832 277.239 61.8686C277.827 59.481 280.051 57.9019 283.628 58.2718L284.196 55.9689L287.168 56.7048L286.611 58.9656C288.134 59.4998 289.553 60.2772 290.588 61.2508L288.201 64.4934C286.929 63.3938 285.647 62.6953 284.361 62.3767C282.906 62.0167 282.338 62.3244 282.213 62.8313C281.776 64.6063 290.298 65.1474 288.955 70.5988C288.392 72.8807 286.258 74.4595 282.85 74.2209Z" fill="#FDD462"/>
<path d="M223.013 53.4869L223.632 54.8928L221.85 55.6808L221.26 54.3382C219.963 54.8212 218.587 55.0211 217.623 54.8878L217.625 52.2844C218.676 52.4096 219.927 52.2344 220.9 51.804C221.747 51.4297 221.972 51.1181 221.838 50.8141C221.348 49.6995 216.854 52.7616 215.4 49.4558C214.771 48.0246 215.278 46.363 217.222 45.1551L216.615 43.7745L218.397 42.9865L218.993 44.3417C219.967 44.0168 220.982 43.8552 221.881 43.9419L221.936 46.5047C220.869 46.447 219.953 46.595 219.182 46.9358C218.31 47.3216 218.144 47.6978 218.277 48.0017C218.745 49.0657 223.245 46.0163 224.682 49.2842C225.284 50.6522 224.822 52.2786 223.013 53.4869Z" fill="#E4E9F9"/>
<path d="M122.595 12.2039L123.213 13.6098L121.431 14.3979L120.841 13.0553C119.544 13.5382 118.168 13.7382 117.204 13.6048L117.206 11.0014C118.257 11.1267 119.508 10.9514 120.481 10.5211C121.328 10.1467 121.553 9.8351 121.419 9.53119C120.929 8.41658 116.435 11.4786 114.981 8.17285C114.352 6.74163 114.859 5.08009 116.803 3.87216L116.196 2.49159L117.978 1.70352L118.574 3.05879C119.548 2.73383 120.563 2.57227 121.462 2.65895L121.517 5.22172C120.45 5.16399 119.534 5.31208 118.763 5.65289C117.891 6.03861 117.725 6.41482 117.858 6.71873C118.326 7.78274 122.826 4.73336 124.263 8.00129C124.865 9.36921 124.403 10.9956 122.595 12.2039Z" fill="#E4E9F9"/>
<path d="M167.34 84.3889C166.94 94.4263 158.496 102.232 148.477 101.822C147.108 101.765 145.781 101.559 144.51 101.218C142.913 100.791 141.404 100.15 140.017 99.3317C138.777 98.6012 137.634 97.7271 136.608 96.735C136.294 96.432 135.992 96.1177 135.701 95.7922C134.422 94.3653 133.366 92.7373 132.587 90.9641C132.434 90.6177 132.292 90.2665 132.161 89.9099C131.361 87.7324 130.966 85.3641 131.064 82.9026C131.073 82.6777 131.087 82.4529 131.106 82.2283C131.846 72.5175 140.136 65.0686 149.927 65.4695C152.337 65.5682 154.618 66.1336 156.687 67.0739C157.086 67.2559 157.478 67.4512 157.862 67.661C159.537 68.5747 161.049 69.7436 162.348 71.1134C162.635 71.4152 162.911 71.7263 163.176 72.0473C164.12 73.1882 164.927 74.4449 165.573 75.792C166.238 77.1807 166.733 78.6652 167.03 80.217C167.246 81.3502 167.358 82.519 167.353 83.7129C167.354 83.9388 167.349 84.1643 167.34 84.3889Z" fill="#FDD462"/>
<path d="M163.699 84.2402C163.69 84.4631 163.675 84.6858 163.659 84.9063C163.002 92.5945 156.394 98.4917 148.623 98.1734C140.851 97.8552 134.735 91.4367 134.693 83.7196C134.693 83.4984 134.696 83.275 134.705 83.0521C135.025 75.0415 141.788 68.7913 149.782 69.1189C157.776 69.4461 164.019 76.2293 163.699 84.2402Z" fill="#F37E00"/>
<path d="M163.658 84.9064C163.001 92.5947 156.394 98.4919 148.623 98.1736C148.449 98.1665 148.277 98.1553 148.105 98.1421C146.374 98.0101 144.732 97.5754 143.228 96.8907C141.723 96.2058 140.358 95.2729 139.184 94.1446C138.885 93.8583 138.599 93.5603 138.324 93.2484C137.08 91.831 136.105 90.1751 135.482 88.359C135.331 87.9245 135.201 87.4785 135.093 87.0275C134.836 85.9631 134.7 84.8551 134.692 83.7201C135.35 76.0318 141.957 70.1327 149.728 70.4509C150.711 70.4914 151.668 70.6299 152.591 70.8566C153.061 70.9712 153.523 71.1101 153.975 71.2707C155.818 71.9248 157.488 72.9415 158.901 74.2317C159.206 74.5103 159.501 74.8025 159.782 75.1084C160.875 76.2903 161.775 77.6529 162.431 79.1434C163.07 80.5967 163.477 82.1685 163.61 83.8127C163.641 84.1729 163.657 84.5389 163.658 84.9064Z" fill="#F7A219"/>
<path d="M150.89 91.9707L150.794 94.3843L147.734 94.2591L147.826 91.9542C145.661 91.7349 143.58 91.0615 142.31 90.2035L144.109 86.5309C145.507 87.4375 147.395 88.0594 149.066 88.1278C150.519 88.1875 151.052 87.9044 151.073 87.3825C151.15 85.469 142.691 86.6688 142.917 80.9934C143.015 78.5364 144.877 76.5436 148.455 76.1891L148.55 73.8191L151.609 73.9443L151.517 76.2709C153.116 76.4889 154.662 76.9662 155.871 77.7126L154.182 81.3675C152.715 80.5453 151.32 80.1179 149.996 80.0635C148.499 80.0023 148.004 80.4176 147.983 80.9393C147.91 82.7659 156.368 81.5878 156.144 87.1976C156.051 89.5469 154.277 91.5214 150.89 91.9707Z" fill="#F37E00"/>
<path d="M150.832 91.1639L150.736 93.5775L147.677 93.4523L147.769 91.1474C145.604 90.9281 143.523 90.2546 142.253 89.3967L144.051 85.7241C145.449 86.631 147.337 87.2526 149.008 87.321C150.462 87.3807 150.995 87.0973 151.016 86.5756C151.092 84.6622 142.633 85.862 142.859 80.1869C142.957 77.7299 144.819 75.7371 148.397 75.3826L148.492 73.0126L151.552 73.1378L151.459 75.4644C153.059 75.6824 154.604 76.1597 155.813 76.9061L154.125 80.5614C152.658 79.739 151.262 79.3117 149.938 79.2573C148.441 79.1961 147.946 79.6114 147.925 80.1331C147.853 81.9597 156.311 80.7816 156.087 86.3917C155.993 88.7401 154.219 90.7145 150.832 91.1639Z" fill="#FDD462"/>
<path d="M303.359 73.9871C302.923 70.9915 301.783 63.9331 301.281 63.8173C300.779 63.7016 300.568 65.3831 300.774 66.0678C300.452 64.784 299.569 61.9798 299.036 61.9999C298.313 62.0251 299.222 66.0627 299.222 66.0627C299.222 66.0627 298.007 61.6878 297.384 61.8942C296.943 62.0402 297.721 65.4183 297.851 66.7525C297.525 65.3327 296.631 62.7349 296.174 62.896C295.722 63.0571 296.29 65.7254 296.566 67.5177C296.29 66.4152 295.637 64.0187 295.21 64.1446C294.784 64.2705 295.893 69.8084 296.556 75.3313" fill="#FFCBBD"/>
<path d="M301.943 102.155C301.943 102.155 303.756 95.6204 304.318 88.275C304.881 80.9297 302.963 71.8474 302.963 71.8474L296.415 74.1784C296.415 74.1784 298.348 86.9862 292.891 101.012" fill="#FFCBBD"/>
<path d="M282.192 101.858C282.192 101.858 282.588 103.006 284.848 103.122C287.755 103.273 289.372 101.858 289.372 101.858C289.372 101.858 298.038 103.011 298.741 112.506C299.549 123.441 299.77 138.801 299.77 138.801H272.742C272.742 138.801 272.923 121.261 273.49 112.889C274.033 104.869 282.192 101.858 282.192 101.858Z" fill="#FF4267"/>
<path d="M298.72 113.705C301.979 105.206 303.138 98.7218 303.138 98.7218L294.462 94.5079C294.462 94.5079 292.399 100.283 289.376 101.853" fill="#FF4267"/>
<path d="M293.76 96.1793L302.762 100.499" stroke="#B22B19" stroke-width="0.75" stroke-miterlimit="10"/>
<path d="M272.736 137.301H299.739" stroke="#B22B19" stroke-width="0.75" stroke-miterlimit="10"/>
<path d="M298.956 113.08C298.956 113.08 297.857 115.441 297.741 116.629" stroke="#B22B19" stroke-width="0.75" stroke-miterlimit="10"/>
<path d="M275.494 106.837C275.494 106.837 273.852 109.627 273.49 112.889" stroke="#B22B19" stroke-width="0.75" stroke-miterlimit="10"/>
<path d="M281.162 101.425C281.162 101.425 281.624 104.587 285.139 104.587C289.457 104.587 290.31 101.425 290.31 101.425" stroke="#B22B19" stroke-width="0.75" stroke-miterlimit="10"/>
<path d="M300.773 66.0678C300.768 66.0376 300.813 66.1182 300.828 66.1484L300.894 66.2692L301.004 66.5159C301.08 66.682 301.135 66.8482 301.19 67.0194C301.295 67.3617 301.376 67.704 301.411 68.0716C301.3 67.9205 301.22 67.7594 301.14 67.5983C301.059 67.4372 301.004 67.266 300.949 67.0949C300.899 66.9237 300.849 66.7525 300.818 66.5713L300.773 66.3045L300.763 66.1685L300.758 66.098C300.753 66.088 300.763 66.0125 300.773 66.0678Z" fill="#EF977F"/>
<path d="M162.516 126.673C169.518 134.086 169.199 145.813 161.795 152.862C160.784 153.826 159.695 154.651 158.545 155.342C157.099 156.21 155.568 156.859 153.988 157.299C152.579 157.688 151.133 157.906 149.689 157.954C149.247 157.969 148.805 157.968 148.361 157.95C146.416 157.875 144.486 157.492 142.646 156.808C142.288 156.674 141.93 156.527 141.577 156.373C139.428 155.415 137.429 154.023 135.71 152.206C135.554 152.042 135.398 151.87 135.252 151.697C128.724 144.266 129.196 132.908 136.431 126.017C138.211 124.321 140.238 123.05 142.388 122.201C142.805 122.039 143.225 121.89 143.647 121.755C145.498 121.176 147.42 120.896 149.336 120.916C149.757 120.92 150.18 120.94 150.6 120.971C152.097 121.089 153.581 121.389 155.018 121.873C156.498 122.37 157.927 123.061 159.264 123.944C160.241 124.591 161.167 125.337 162.031 126.186C162.195 126.344 162.357 126.507 162.516 126.673Z" fill="#FDD462"/>
<path opacity="0.3" d="M159.264 123.944L158.544 155.342C157.099 156.21 155.568 156.86 153.988 157.299L155.021 121.875C156.5 122.368 157.929 123.058 159.264 123.944Z" fill="white"/>
<path opacity="0.3" d="M143.648 121.753L142.644 156.804C142.286 156.669 141.928 156.523 141.575 156.368L142.386 122.197C142.803 122.034 143.223 121.885 143.648 121.753Z" fill="white"/>
<path opacity="0.3" d="M150.601 120.969L149.685 157.948C149.243 157.963 148.8 157.962 148.357 157.943L149.336 120.909C149.759 120.917 150.181 120.938 150.601 120.969Z" fill="white"/>
<path d="M159.824 129.238C159.981 129.402 160.131 129.571 160.279 129.741C165.394 135.675 164.992 144.704 159.251 150.173C153.509 155.641 144.513 155.57 138.879 150.128C138.719 149.969 138.559 149.81 138.402 149.646C132.812 143.73 133.071 134.338 138.978 128.713C144.883 123.083 154.237 123.32 159.824 129.238Z" fill="#F37E00"/>
<path d="M160.279 129.736C165.394 135.67 164.992 144.699 159.251 150.168C159.122 150.288 158.994 150.409 158.861 150.523C157.538 151.696 156.058 152.594 154.493 153.209C152.93 153.827 151.285 154.164 149.631 154.224C149.212 154.242 148.79 154.238 148.37 154.219C146.458 154.126 144.565 153.667 142.805 152.831C142.382 152.631 141.967 152.413 141.562 152.173C140.608 151.608 139.705 150.92 138.876 150.121C133.761 144.187 134.163 135.158 139.905 129.69C140.632 128.998 141.409 128.394 142.228 127.88C142.645 127.618 143.073 127.376 143.509 127.158C145.291 126.271 147.212 125.769 149.151 125.648C149.568 125.621 149.989 125.613 150.413 125.626C152.045 125.662 153.673 125.971 155.219 126.546C156.729 127.109 158.157 127.924 159.446 128.994C159.735 129.231 160.013 129.478 160.279 129.736Z" fill="#F7A219"/>
<path opacity="0.2" d="M159.452 128.998L158.859 150.526C157.536 151.699 156.056 152.596 154.491 153.212L155.224 126.55C156.734 127.113 158.163 127.927 159.452 128.998Z" fill="#FBE6A1"/>
<path opacity="0.2" d="M143.513 127.162L142.806 152.834C142.383 152.634 141.968 152.415 141.563 152.175L142.231 127.88C142.646 127.621 143.074 127.378 143.513 127.162Z" fill="#FBE6A1"/>
<path opacity="0.2" d="M150.417 125.63L149.63 154.23C149.211 154.247 148.79 154.243 148.37 154.225L149.153 125.655C149.575 125.627 149.994 125.617 150.417 125.63Z" fill="#FBE6A1"/>
<path fill-rule="evenodd" clip-rule="evenodd" d="M147.7 139.396L151.745 139.578L151.642 141.779L148.497 141.638C148.687 142.566 148.773 143.211 148.756 143.571C148.737 143.985 148.573 144.695 148.266 145.7L148.464 145.777C148.746 145.889 149.004 145.993 149.237 146.089C149.471 146.186 149.684 146.274 149.878 146.355C150.95 146.845 151.737 147.102 152.239 147.124C152.624 147.142 152.966 147.022 153.265 146.764C153.424 146.627 153.602 146.432 153.798 146.179C153.994 145.927 154.213 145.612 154.455 145.235L156.883 146.86C156.223 148.12 155.526 148.995 154.794 149.486C154.052 149.993 153.161 150.224 152.122 150.177C151.37 150.143 150.235 149.826 148.72 149.226C147.251 148.582 146.216 148.247 145.616 148.22C145.123 148.198 144.728 148.297 144.43 148.519C144.133 148.74 143.787 149.22 143.393 149.96L140.77 148.475C141.666 147.172 142.369 146.342 142.88 145.986C143.475 145.552 144.254 145.303 145.217 145.238C145.466 144.537 145.604 143.898 145.631 143.322C145.66 142.701 145.531 142.091 145.245 141.491L141.698 141.332L141.801 139.131L144.234 139.24C143.446 137.463 143.082 135.959 143.14 134.725C143.224 132.934 143.967 131.438 145.37 130.238C146.791 129.039 148.46 128.483 150.377 128.569C152.303 128.655 153.855 129.361 155.031 130.686C156.217 131.994 156.764 133.642 156.67 135.632L153.539 136.641C153.61 135.138 153.507 134.078 153.231 133.461C152.696 132.237 151.694 131.592 150.225 131.526C149.141 131.477 148.233 131.792 147.501 132.472C146.769 133.143 146.377 134.027 146.326 135.126C146.283 136.044 146.696 137.38 147.565 139.133C147.581 139.161 147.6 139.195 147.62 139.237C147.641 139.278 147.667 139.331 147.7 139.396" fill="#F37E00"/>
<path fill-rule="evenodd" clip-rule="evenodd" d="M146.958 139.318L151.003 139.5L150.899 141.701L147.755 141.559C147.945 142.488 148.031 143.133 148.014 143.493C147.995 143.907 147.831 144.617 147.524 145.622L147.722 145.699C148.004 145.811 148.262 145.915 148.495 146.011C148.729 146.107 148.942 146.196 149.136 146.277C150.208 146.767 150.995 147.023 151.497 147.046C151.882 147.063 152.224 146.943 152.523 146.686C152.682 146.549 152.86 146.354 153.056 146.101C153.252 145.848 153.471 145.533 153.713 145.156L156.141 146.781C155.48 148.042 154.784 148.917 154.052 149.407C153.31 149.915 152.419 150.146 151.38 150.099C150.627 150.065 149.493 149.748 147.977 149.147C146.508 148.504 145.474 148.169 144.874 148.142C144.381 148.119 143.986 148.219 143.688 148.44C143.39 148.661 143.045 149.142 142.651 149.882L140.028 148.397C140.924 147.093 141.627 146.263 142.138 145.907C142.732 145.474 143.512 145.225 144.475 145.16C144.724 144.459 144.861 143.82 144.888 143.244C144.918 142.622 144.789 142.012 144.503 141.413L140.956 141.253L141.059 139.052L143.491 139.162C142.704 137.385 142.339 135.88 142.397 134.647C142.482 132.855 143.225 131.36 144.628 130.16C146.049 128.961 147.718 128.404 149.635 128.49C151.561 128.577 153.112 129.283 154.289 130.608C155.475 131.915 156.022 133.564 155.928 135.553L152.797 136.563C152.868 135.059 152.765 133.999 152.489 133.382C151.954 132.159 150.952 131.513 149.483 131.447C148.399 131.398 147.491 131.714 146.758 132.394C146.027 133.064 145.635 133.949 145.583 135.047C145.54 135.965 145.953 137.301 146.822 139.054C146.839 139.082 146.858 139.117 146.878 139.158C146.898 139.2 146.925 139.253 146.958 139.318" fill="#FDD462"/>
<path d="M236.838 191.553L237.309 206.465L236.827 211.157L219.098 211.062C218.652 211.062 218.29 210.694 218.29 210.246C218.29 209.909 218.501 209.607 218.812 209.491L226.72 205.846L225.525 190.33" fill="#FFCBBD"/>
<path d="M217.487 210.865C217.672 210.276 218.019 209.617 218.365 209.466L226.75 205.846C231.375 207.724 237.355 206.289 237.355 206.289L237.812 212.622C237.812 212.834 237.641 213 237.43 213L217.622 212.894C217.215 212.884 217.482 210.88 217.487 210.865Z" fill="#3629B7"/>
<path d="M224.938 206.203C225.409 206.818 225.806 207.487 226.117 208.192" stroke="#121649" stroke-width="0.75" stroke-miterlimit="10"/>
<path d="M223.879 206.838C224.366 207.512 224.562 207.905 224.853 208.529" stroke="#121649" stroke-width="0.75" stroke-miterlimit="10"/>
<path d="M222.99 207.301C223.322 207.744 223.643 208.363 223.904 208.857" stroke="#121649" stroke-width="0.75" stroke-miterlimit="10"/>
<path d="M237.706 211.625L217.401 211.52" stroke="#121649" stroke-width="0.75" stroke-miterlimit="10"/>
<path d="M237.525 208.595C237.525 208.595 232.82 208.63 232.398 211.595" stroke="#121649" stroke-width="0.75" stroke-miterlimit="10"/>
<path d="M220.082 208.721C220.082 208.721 221.438 210.649 221.704 211.54" stroke="#121649" stroke-width="0.75" stroke-miterlimit="10"/>
<path d="M234.783 132.961C234.783 132.961 236.942 136.606 237.565 139.32C238.554 143.64 237.565 148.06 237.565 148.06L237.52 200.187H224.355C224.355 200.187 221.432 140.115 222.733 132.347" fill="#3629B7"/>
<path d="M226.362 200.187C226.362 200.187 223.44 140.115 224.741 132.347" stroke="#121649" stroke-width="0.75" stroke-miterlimit="10"/>
<path d="M222.3 185.683L228.28 199.341L229.576 203.873L213.087 210.412C212.67 210.579 212.198 210.372 212.032 209.954C211.907 209.642 211.992 209.285 212.238 209.058L218.223 202.72L211.35 188.769" fill="#FFCBBD"/>
<path d="M211.52 210.83C211.475 210.216 211.55 209.471 211.816 209.204L218.253 202.71C223.239 202.725 228.26 199.155 228.26 199.155L231.037 204.859C231.112 205.056 231.017 205.272 230.826 205.353L212.404 212.658C212.022 212.809 211.52 210.85 211.52 210.83Z" fill="#3629B7"/>
<path d="M216.702 203.727C217.365 204.119 217.982 204.593 218.54 205.131" stroke="#121649" stroke-width="0.75" stroke-miterlimit="10"/>
<path d="M215.959 204.708C216.662 205.151 216.988 205.443 217.49 205.917" stroke="#121649" stroke-width="0.75" stroke-miterlimit="10"/>
<path d="M215.301 205.469C215.773 205.761 216.305 206.209 216.722 206.571" stroke="#121649" stroke-width="0.75" stroke-miterlimit="10"/>
<path d="M230.569 203.983L211.686 211.475" stroke="#121649" stroke-width="0.75" stroke-miterlimit="10"/>
<path d="M229.275 201.24C229.275 201.24 224.922 203.027 225.635 205.942" stroke="#121649" stroke-width="0.75" stroke-miterlimit="10"/>
<path d="M213.132 207.875C213.132 207.875 215.105 209.159 215.688 209.884" stroke="#121649" stroke-width="0.75" stroke-miterlimit="10"/>
<path d="M212.088 141.455C205.325 158.124 205.204 159.886 204.09 168.022C202.945 176.369 215.452 200.942 215.452 200.942L227.452 195.631C227.452 195.631 219.494 173.147 220.006 169.28C220.955 162.167 229.139 150.033 229.139 150.033C229.139 150.033 233.026 146.947 233.874 142.849C234.718 138.751 232.86 134.457 232.86 134.457" fill="#3629B7"/>
<path d="M224.424 143.418C224.6 143.358 229.811 141.716 229.811 141.716" stroke="#121649" stroke-width="0.75" stroke-miterlimit="10"/>
<path d="M235.918 140.191L237.63 139.642" stroke="#121649" stroke-width="0.75" stroke-miterlimit="10"/>
<path d="M216.104 140.951C216.104 140.951 207.744 159.171 206.599 167.518C205.455 175.866 217.62 199.754 217.62 199.754" stroke="#121649" stroke-width="0.75" stroke-miterlimit="10"/>
<path d="M222.793 161.265C225.389 155.536 229.144 150.028 229.144 150.028C229.144 150.028 233.031 146.942 233.879 142.844" stroke="#121649" stroke-width="0.75" stroke-miterlimit="10"/>
<path d="M210.949 100.207L214.388 106.213C214.388 106.213 212.325 110.689 206.751 108.564L205.32 105.392L210.949 100.207Z" fill="#FFCBBD"/>
<path d="M201.805 96.1441C201.805 96.1441 200.113 104.129 203.06 105.554C204.591 106.294 208.879 105.836 209.893 104.199C210.647 102.981 210.35 97.2265 209.432 96.5267C205.917 93.8584 201.805 96.1441 201.805 96.1441Z" fill="#FFCBBD"/>
<path d="M209.271 93.7829C207.981 91.5274 205.36 91.9755 201.092 94.4122C200.519 94.7395 199.274 94.8553 199.264 95.5148C199.244 96.3807 199.867 97.8055 200.866 98.0924C201.534 98.2838 201.885 98.2233 202.563 98.0622C203.452 97.8558 204.637 98.2133 204.622 99.2605C204.617 99.5323 204.536 100.036 204.792 100.136C204.923 100.187 205.254 100.147 205.395 100.152C205.796 100.167 206.012 100.655 205.962 101.053C205.912 101.45 206.163 101.742 206.113 102.14C205.992 103.082 207.192 104.114 208.136 104.189C208.97 104.255 211.41 103.847 212.565 102.271C213.569 100.907 213.438 98.6009 211.766 95.1674C211.124 93.8484 209.718 93.4506 209.271 93.7829Z" fill="#212237"/>
<path d="M204.547 100.489C204.818 99.21 205.476 99.0691 206.048 99.4164C206.806 99.8796 206.641 101.702 206.359 102.14C205.792 103.026 205.109 103.298 204.728 102.669" fill="#FFCBBD"/>
<path d="M205.596 105.891C206.474 105.161 206.344 103.761 206.344 103.761" stroke="#E88872" stroke-width="0.5" stroke-miterlimit="10" stroke-linejoin="round"/>
<path d="M202.066 99.9602C201.946 100.237 201.906 100.645 202.131 100.821C202.197 100.871 202.272 100.871 202.342 100.826C202.784 100.554 202.322 99.3863 202.066 99.9602Z" fill="#28364C"/>
<path d="M201.705 99.0793C202.047 99.0389 202.644 99.0692 203 99.3517" stroke="#28364C" stroke-width="0.75" stroke-miterlimit="10"/>
<path d="M203.171 102.9L201.886 102.855C201.886 102.855 201.836 104.441 202.438 104.471C203.106 104.511 203.171 102.9 203.171 102.9Z" fill="white"/>
<path d="M213.595 104.824C213.595 104.824 216.592 104.053 220.835 105.292C224.415 106.339 228.969 109.027 232.398 112.682C238.333 119.011 235.597 134.744 235.597 134.744L227.879 134.452C227.879 134.452 229.089 124.342 225.048 120.29C221.006 116.237 215.302 115.285 215.302 115.285" fill="#ADBBF9"/>
<path d="M180.848 126.925C178.428 127.6 171.102 128.395 170.986 128.899C170.871 129.402 173.452 129.155 173.276 129.548C173.1 129.941 169.159 130.59 169.174 131.124C169.194 131.844 173.201 130.963 173.201 130.963C173.201 130.963 171.539 131.26 171.735 131.884C171.875 132.322 172.553 132.458 173.868 132.332C173.145 132.493 172.864 132.846 173.02 133.299C173.176 133.747 173.874 133.717 174.617 133.621C174.104 133.737 173.713 134.074 174.044 134.371C174.476 134.759 177.463 134.593 182.761 133.691" fill="#FFCBBD"/>
<path d="M205.973 106.838C205.973 106.838 208.036 107.729 210.321 106.838C212.605 105.947 213.595 104.829 213.595 104.829C213.595 104.829 218.781 104.472 225.098 110.805C231.474 117.199 236.435 135.338 236.435 135.338L210.296 144.149C210.296 144.149 205.827 128.27 204.065 121.04C202.302 113.8 205.973 106.838 205.973 106.838Z" fill="#ADBBF9"/>
<path d="M224.756 109.138C229.983 115.255 236.435 135.333 236.435 135.333" stroke="#525BCE" stroke-width="0.75" stroke-miterlimit="10"/>
<path d="M205.973 106.837C202.529 108.161 199.571 111.509 197.759 114.963C194.786 120.617 192.974 124.72 192.974 124.72L177.986 126.97L178.729 134.985C178.729 134.985 188.902 134.683 197.016 133.46C202.78 132.589 207.239 120.617 207.239 120.617" fill="#ADBBF9"/>
<path d="M204.964 107.29C204.964 107.29 206.621 109.51 210.597 108.015C214.574 106.52 214.715 104.672 214.715 104.672" stroke="#525BCE" stroke-width="0.75" stroke-miterlimit="10"/>
<path d="M205.324 124.735L206.951 121.281" stroke="#525BCE" stroke-width="0.75" stroke-miterlimit="10"/>
<path d="M180.326 126.613L180.894 134.87" stroke="#525BCE" stroke-width="0.75" stroke-miterlimit="10"/>
<path d="M209.813 142.426L235.918 133.777" stroke="#525BCE" stroke-width="0.75" stroke-miterlimit="10"/>
<path d="M107 120.486C107.115 120.562 107.236 120.642 107.356 120.718C108.526 121.463 109.721 122.213 111.047 122.606C111.82 122.832 112.659 122.953 113.286 123.456C113.542 123.658 113.758 123.874 114.039 124.04C114.115 124.086 114.853 124.363 114.823 124.282C114.933 124.549 115.224 124.68 115.49 124.786C115.521 124.796 115.556 124.811 115.586 124.806C115.621 124.801 115.646 124.765 115.636 124.735C115.731 124.921 116.068 125.007 116.178 124.901C116.284 124.801 116.018 124.327 116.018 124.327C116.018 124.327 116.198 124.337 116.254 124.282C116.339 124.181 116.359 124.045 116.369 123.915C116.449 122.701 115.977 121.463 115.099 120.602" fill="#FFCBBD"/>
<path d="M115.344 122.993C115.344 123.2 115.464 123.411 115.545 123.602C115.63 123.809 115.72 124.005 115.826 124.206C115.876 124.297 116.001 124.232 115.981 124.141C115.936 123.904 115.856 123.688 115.75 123.466C115.665 123.285 115.575 123.074 115.404 122.963C115.379 122.943 115.344 122.963 115.344 122.993Z" fill="#F49C8E"/>
<path d="M114.089 123.039C114.536 123.527 114.983 123.99 115.374 124.524C115.414 124.579 115.52 124.549 115.495 124.473C115.304 123.814 114.646 123.411 114.174 122.953C114.114 122.898 114.034 122.978 114.089 123.039Z" fill="#F49C8E"/>
<path d="M105.996 212.99L97.0732 121.689" stroke="#0E32AE" stroke-miterlimit="10"/>
<path d="M140.731 212.99L131.808 121.689H97.0732" stroke="#0E32AE" stroke-miterlimit="10"/>
<path d="M122.886 212.99L131.808 121.689" stroke="#0E32AE" stroke-miterlimit="10"/>
<path d="M88.1553 212.99L97.0725 121.689H131.808" stroke="#0E32AE" stroke-miterlimit="10"/>
<path d="M139.299 200.056H89.416" stroke="#0E32AE" stroke-miterlimit="10"/>
<path d="M138.139 188.88H90.5098" stroke="#0E32AE" stroke-miterlimit="10"/>
<path d="M137.25 177.391H91.6348" stroke="#0E32AE" stroke-miterlimit="10"/>
<path d="M136.137 166.441H92.7051" stroke="#0E32AE" stroke-miterlimit="10"/>
<path d="M135.061 155.002H93.7734" stroke="#0E32AE" stroke-miterlimit="10"/>
<path d="M133.957 143.67H94.8887" stroke="#0E32AE" stroke-miterlimit="10"/>
<path d="M132.656 132.966H95.9727" stroke="#0E32AE" stroke-miterlimit="10"/>
<path d="M105.061 121.463C108.625 121.473 112.19 121.468 115.75 121.438C115.414 120.833 115.203 120.456 114.821 120.073C114.349 119.605 113.988 119.328 113.496 119.076C111.839 118.226 109.981 117.767 108.118 117.747" fill="#FFCBBD"/>
<path d="M92.6192 96.8287C92.6192 96.8287 97.4946 109.571 98.7096 110.638C99.9297 111.706 111.538 117.495 111.538 117.495L107.978 125.047C107.978 125.047 94.01 119.454 92.0067 117.495C90.0033 115.537 83.6367 107.955 82.999 100.348" fill="#FF4267"/>
<path d="M83.3156 180.1L82.8135 193.809L83.2352 198.123L99.5434 198.118C99.9551 198.118 100.286 197.781 100.286 197.368C100.286 197.061 100.096 196.779 99.8095 196.668L92.5542 193.28L93.7241 179.017" fill="#FFCBBD"/>
<path d="M101.025 197.947C100.854 197.403 100.543 196.794 100.221 196.653L92.524 193.285C88.2663 194.992 82.7683 193.642 82.7683 193.642L82.3164 199.462C82.3164 199.654 82.4721 199.81 82.6629 199.81L100.879 199.805C101.266 199.81 101.03 197.962 101.025 197.947Z" fill="#FF4267"/>
<path d="M94.1961 193.627C93.7593 194.191 93.3928 194.806 93.1016 195.455" stroke="#B22B19" stroke-width="0.75" stroke-miterlimit="10"/>
<path d="M95.1596 194.216C94.7077 194.836 94.527 195.193 94.2559 195.767" stroke="#B22B19" stroke-width="0.75" stroke-miterlimit="10"/>
<path d="M95.9783 194.644C95.672 195.052 95.3708 195.616 95.1348 196.069" stroke="#B22B19" stroke-width="0.75" stroke-miterlimit="10"/>
<path d="M82.4219 198.556L101.1 198.551" stroke="#B22B19" stroke-width="0.75" stroke-miterlimit="10"/>
<path d="M82.6074 195.772C82.6074 195.772 86.9305 195.822 87.3071 198.556" stroke="#B22B19" stroke-width="0.75" stroke-miterlimit="10"/>
<path d="M98.645 195.963C98.645 195.963 97.3897 197.73 97.1387 198.551" stroke="#B22B19" stroke-width="0.75" stroke-miterlimit="10"/>
<path d="M79.7107 128.556C79.7107 128.556 78.1391 135.544 81.5182 144.007C81.5182 144.007 83.1551 152.858 83.2856 162.977C83.4212 173.298 82.0505 186.448 82.0505 191.361H95.4665C95.4665 191.361 97.1134 177.376 97.259 163.279C97.4247 147.491 96.0891 129.669 96.0891 125.067" fill="#ADBBF9"/>
<path d="M93.458 191.362C93.458 191.362 95.1049 177.119 95.2555 162.841C95.4162 147.159 94.0806 129.624 94.0806 125.062" stroke="#525BCE" stroke-width="0.75" stroke-miterlimit="10"/>
<path d="M105.995 168.943L105.493 182.657L105.915 186.972L122.223 186.967C122.635 186.967 122.966 186.629 122.966 186.217C122.966 185.909 122.775 185.627 122.489 185.517L115.234 182.128L116.404 167.866" fill="#FFCBBD"/>
<path d="M123.704 186.785C123.534 186.242 123.222 185.632 122.901 185.492L115.204 182.123C110.946 183.83 105.448 182.481 105.448 182.481L104.996 188.301C104.996 188.492 105.152 188.648 105.343 188.648L123.559 188.643C123.945 188.648 123.709 186.806 123.704 186.785Z" fill="#FF4267"/>
<path d="M116.876 182.471C116.439 183.035 116.072 183.649 115.781 184.298" stroke="#B22B19" stroke-width="0.75" stroke-miterlimit="10"/>
<path d="M117.839 183.055C117.387 183.674 117.207 184.031 116.936 184.605" stroke="#B22B19" stroke-width="0.75" stroke-miterlimit="10"/>
<path d="M118.658 183.483C118.352 183.891 118.05 184.454 117.814 184.908" stroke="#B22B19" stroke-width="0.75" stroke-miterlimit="10"/>
<path d="M105.102 187.395L123.78 187.39" stroke="#B22B19" stroke-width="0.75" stroke-miterlimit="10"/>
<path d="M105.287 184.61C105.287 184.61 109.61 184.661 109.987 187.395" stroke="#B22B19" stroke-width="0.75" stroke-miterlimit="10"/>
<path d="M121.325 184.807C121.325 184.807 120.069 186.574 119.818 187.395" stroke="#B22B19" stroke-width="0.75" stroke-miterlimit="10"/>
<path d="M102.31 129.322C102.31 129.322 115.199 141.57 118.106 149.55C120.129 155.113 117.187 180.497 117.187 180.497H104.348C104.348 180.497 105.915 157.389 105.102 155.003C104.148 152.198 93.0964 142.638 93.0964 142.638C93.0964 142.638 88.3817 141.581 86.1574 136.551C84.154 132.02 85.0779 126.522 85.0779 126.522" fill="#ADBBF9"/>
<path d="M99.2969 129.322C99.2969 129.322 112.658 143.484 115.093 149.55C116.941 154.157 114.174 180.497 114.174 180.497" stroke="#525BCE" stroke-width="0.75" stroke-miterlimit="10"/>
<path d="M96.9873 146.122C95.9731 145.2 94.2208 143.62 93.6885 143.146C93.3471 142.844 92.9555 142.608 92.5237 142.457C91.1981 141.993 87.9094 140.493 86.1621 136.546" stroke="#525BCE" stroke-width="0.75" stroke-miterlimit="10"/>
<path d="M89.7129 133.727C89.7129 133.727 93.559 133.862 95.1657 133.727" stroke="#525BCE" stroke-width="0.75" stroke-miterlimit="10"/>
<path d="M79.3496 133.727H82.4475" stroke="#525BCE" stroke-width="0.75" stroke-miterlimit="10"/>
<path d="M125.346 98.2988C126.691 97.6846 132.827 94.9911 132.973 95.3637C133.113 95.7211 131.17 97.0201 131.386 97.0805C131.506 97.1157 133.239 96.6626 134.107 96.2347C134.881 95.852 136.186 95.3687 136.397 95.6859C136.794 96.285 132.521 98.324 132.521 98.324C132.521 98.324 133.274 97.9766 133.66 98.4448C134.213 99.1194 133.043 99.7437 133.043 99.7437C133.043 99.7437 133.716 99.4014 133.937 99.9854C134.168 100.59 133.163 101.083 133.163 101.083C133.163 101.083 133.962 100.7 134.062 101.43C134.193 102.392 127.816 104.647 127.816 104.647" fill="#FFCBBD"/>
<path d="M94.2607 92.0762C94.2607 92.0762 92.9804 93.0982 90.9318 92.7458C88.8832 92.3984 88.3862 91.4066 88.3862 91.4066C88.3862 91.4066 82.9384 92.1668 80.3225 109.007C78.4848 120.838 79.0923 130.464 79.0923 130.464H103.921C103.921 130.464 104.679 104.733 103.419 99.9502" fill="#FF4267"/>
<path d="M96.214 104.451C96.214 104.451 103.57 112.597 110.433 112.597C117.297 112.597 130.216 105.292 130.216 105.292L127.128 96.7986L112.115 102.196C112.115 102.196 104.212 94.7898 100.562 93.4255C96.917 92.0611 94.2559 92.0712 94.2559 92.0712" fill="#FF4267"/>
<path d="M104.122 110.724C104.122 110.724 99.5027 107.19 97.2734 105.533" stroke="#B22B19" stroke-width="0.75" stroke-miterlimit="10"/>
<path d="M125.697 97.3171L128.524 106.213" stroke="#B22B19" stroke-width="0.75" stroke-miterlimit="10"/>
<path d="M79.0176 128.39H103.977" stroke="#B22B19" stroke-width="0.75" stroke-miterlimit="10"/>
<path d="M99.7383 107.391C99.9793 114.55 99.7383 130.464 99.7383 130.464" stroke="#B22B19" stroke-width="0.75" stroke-miterlimit="10"/>
<path d="M88.4764 87.7365L87.9141 92.2826C87.9141 92.2826 92.2873 94.5834 95.1895 92.1366V89.4885L88.4764 87.7365Z" fill="#FFCBBD"/>
<path d="M94.4164 80.6025C94.4164 80.6025 99.5277 87.0668 97.6599 89.4582C96.6909 90.7017 93.5176 90.4047 92.0063 89.4582C90.8866 88.7534 87.7535 85.0077 88.2356 84.0461C90.0632 80.391 94.4164 80.6025 94.4164 80.6025Z" fill="#FFCBBD"/>
<path d="M93.7586 81.7856C93.8439 84.4036 93.5075 86.7446 93.5075 86.7446L93.1159 95.2479C93.1159 95.2479 86.3677 95.9678 82.0547 92.9622C82.0547 92.9622 83.5007 84.026 86.7192 81.3174C89.7769 78.7397 93.7586 78.926 95.782 80.5924C95.782 80.5924 95.5009 81.3728 95.1243 81.554C94.7427 81.7403 93.7586 81.7856 93.7586 81.7856Z" fill="#4A1A1A"/>
<path d="M94.2008 85.8888C93.5782 85.0933 93.0711 85.2192 92.7949 85.6572C92.4284 86.2361 93.1665 87.4444 93.5079 87.6508C94.2058 88.0687 94.7682 88.0234 94.8234 87.4595" fill="#FFCBBD"/>
<path d="M95.2456 90.2588C94.5075 90.2588 94.2715 89.6395 94.2715 89.6395" stroke="#E88872" stroke-width="0.5" stroke-miterlimit="10" stroke-linejoin="round"/>
<path d="M95.757 83.88C95.9729 84.0613 96.1738 84.3835 96.0533 84.6201C96.0181 84.6855 95.9529 84.7208 95.8826 84.7107C95.4006 84.6704 95.3102 83.5075 95.757 83.88Z" fill="#28364C"/>
<path d="M95.6964 82.999C95.2144 82.999 94.9132 83.3766 94.7324 83.7592" stroke="#28364C" stroke-width="0.5" stroke-miterlimit="10" stroke-linecap="round"/>
<path d="M96.1484 87.2179L97.2832 86.8503C97.2832 86.8503 97.73 88.2499 97.1978 88.4312C96.6154 88.6326 96.1484 87.2179 96.1484 87.2179Z" fill="white"/>
<path d="M89.9575 79.802C90.4093 79.6862 90.7206 79.213 90.7106 78.7498C90.6955 78.2816 90.3943 77.8487 89.9826 77.6322C89.5708 77.4106 89.0738 77.3905 88.6269 77.5164C88.4562 77.5617 88.2905 77.6322 88.1449 77.7379C87.5625 78.1709 87.5775 79.1022 87.9892 79.7014C88.16 79.943 88.3909 80.1595 88.6821 80.2249C88.9683 80.2904 89.5658 80.1897 89.9072 79.9883" fill="#4A1A1A"/>
<path d="M96.2988 83.8096C96.4244 83.8801 97.775 84.4641 97.78 85.0078C97.785 85.3149 97.0369 85.6472 97.0369 85.6472" fill="#FFCBBD"/>
<path d="M114.003 120.395C114.807 121.261 115.073 122.117 115.399 122.817C115.414 122.847 115.429 122.882 115.429 122.918C115.434 123.079 115.193 123.094 115.043 123.033C114.701 122.903 114.385 122.716 114.104 122.475C113.993 122.379 113.888 122.278 113.762 122.203C113.531 122.072 113.26 122.057 112.994 122.022C111.914 121.886 110.83 121.352 110.303 120.395" fill="#FFCBBD"/>
<path d="M114.004 120.395C114.556 120.909 114.953 121.573 115.259 122.258L115.495 122.762C115.51 122.822 115.55 122.877 115.535 122.963C115.52 123.054 115.435 123.124 115.375 123.144C115.244 123.19 115.139 123.174 115.023 123.144C114.652 123.008 114.315 122.812 114.019 122.56C113.873 122.429 113.758 122.314 113.602 122.253C113.452 122.193 113.271 122.168 113.085 122.142C112.709 122.097 112.332 122.011 111.976 121.865C111.273 121.584 110.625 121.08 110.309 120.39C110.715 121.025 111.358 121.448 112.046 121.684C112.392 121.795 112.749 121.881 113.11 121.916C113.296 121.936 113.492 121.951 113.688 122.027C113.889 122.102 114.044 122.253 114.18 122.364C114.446 122.601 114.762 122.792 115.094 122.918C115.159 122.943 115.244 122.948 115.294 122.928C115.32 122.918 115.32 122.913 115.32 122.913C115.325 122.908 115.304 122.872 115.299 122.847C115.219 122.676 115.154 122.5 115.084 122.329C114.812 121.639 114.476 120.974 114.004 120.395Z" fill="#E88872"/>
<path d="M28.4822 192.333L28.0303 206.702L28.4972 211.223L45.5836 211.132C46.0154 211.132 46.3619 210.78 46.3619 210.347C46.3619 210.025 46.161 209.733 45.8598 209.617L38.2379 206.103L39.3877 191.15" fill="#FFCBBD"/>
<path d="M47.1301 210.941C46.9493 210.372 46.6179 209.738 46.2815 209.592L38.1978 206.103C33.7441 207.915 27.975 206.531 27.975 206.531L27.5332 212.632C27.5332 212.834 27.6989 212.995 27.8997 212.995L46.9895 212.894C47.3912 212.889 47.1351 210.956 47.1301 210.941Z" fill="#3629B7"/>
<path d="M39.9503 206.45C39.4984 207.044 39.1168 207.689 38.8105 208.368" stroke="#5565AA" stroke-width="0.75" stroke-miterlimit="10"/>
<path d="M40.9692 207.059C40.5022 207.709 40.3114 208.086 40.0303 208.69" stroke="#5565AA" stroke-width="0.75" stroke-miterlimit="10"/>
<path d="M41.8279 207.507C41.5116 207.935 41.1952 208.529 40.9492 209.003" stroke="#5565AA" stroke-width="0.75" stroke-miterlimit="10"/>
<path d="M27.6445 211.676L47.2113 211.57" stroke="#5565AA" stroke-width="0.75" stroke-miterlimit="10"/>
<path d="M27.8193 208.756C27.8193 208.756 32.3533 208.786 32.76 211.646" stroke="#5565AA" stroke-width="0.75" stroke-miterlimit="10"/>
<path d="M44.624 208.877C44.624 208.877 43.3186 210.739 43.0625 211.595" stroke="#5565AA" stroke-width="0.75" stroke-miterlimit="10"/>
<path d="M30.0633 140.911C30.0633 140.911 39.1412 157.973 42.0232 168.706C44.9053 179.435 41.0743 203.606 41.0743 203.606H26.9453C26.9453 203.606 29.762 177.376 26.4281 168.706C23.0942 160.037 11.1543 137.231 11.1543 137.231" fill="#ADBBF9"/>
<path d="M28.8773 203.601C28.8773 203.601 31.1919 176.314 29.7861 169.572C28.3752 162.831 18.6094 147.144 18.6094 147.144" stroke="#525BCE" stroke-width="0.75" stroke-miterlimit="10"/>
<path d="M12.2933 184.339L3.94345 195.883L1.66895 199.815L15.5369 209.818C15.8883 210.07 16.3754 209.989 16.6264 209.642C16.8172 209.38 16.8222 209.028 16.6465 208.756L12.5444 201.421L21.798 189.318" fill="#FFCBBD"/>
<path d="M16.9029 210.573C17.0887 210.009 17.1941 209.295 17.0083 208.982L12.5196 201.395C7.85511 200.232 4.00402 195.711 4.00402 195.711L0.0675794 200.383C-0.047903 200.55 -0.0127562 200.776 0.152936 200.892L15.6477 212.069C15.969 212.305 16.8979 210.593 16.9029 210.573Z" fill="#3629B7"/>
<path d="M13.7341 202.709C13.0211 202.921 12.3333 203.218 11.6855 203.591" stroke="#5565AA" stroke-width="0.75" stroke-miterlimit="10"/>
<path d="M14.1965 203.802C13.4333 204.054 13.0618 204.245 12.4844 204.567" stroke="#5565AA" stroke-width="0.75" stroke-miterlimit="10"/>
<path d="M14.6335 204.673C14.1264 204.834 13.5239 205.126 13.0469 205.368" stroke="#5565AA" stroke-width="0.75" stroke-miterlimit="10"/>
<path d="M0.714844 199.679L16.6012 211.137" stroke="#5565AA" stroke-width="0.75" stroke-miterlimit="10"/>
<path d="M2.56836 197.418C2.56836 197.418 6.21359 200.117 4.86797 202.669" stroke="#5565AA" stroke-width="0.75" stroke-miterlimit="10"/>
<path d="M16.0894 207.432C16.0894 207.432 13.9404 208.167 13.2324 208.705" stroke="#5565AA" stroke-width="0.75" stroke-miterlimit="10"/>
<path d="M7.42885 137.226C4.73761 144.873 7.42885 150.889 7.42885 150.889C7.42885 150.889 16.6022 167.699 16.6022 171.113C16.6022 174.244 4.83301 192.097 4.83301 192.097L15.593 200.771C15.593 200.771 32.4936 182.531 32.1772 169.91C31.7806 154.303 23.3102 137.226 23.3102 137.226" fill="#ADBBF9"/>
<path d="M9.43752 137.729C6.74628 145.376 9.99485 150.527 9.99485 150.527C9.99485 150.527 18.6108 168.203 18.6108 171.616C18.6108 174.748 6.38477 193.345 6.38477 193.345" stroke="#525BCE" stroke-width="0.75" stroke-miterlimit="10"/>
<path d="M27.8939 183.75C30.4144 179.113 32.2822 174.189 32.1717 169.91C31.7751 154.303 23.3047 137.226 23.3047 137.226" stroke="#525BCE" stroke-width="0.75" stroke-miterlimit="10"/>
<path d="M8.55273 143.725C8.55273 143.725 13.3528 144.007 15.2356 140.135" stroke="#525BCE" stroke-width="0.75" stroke-miterlimit="10"/>
<path d="M26.9551 145.935C26.9551 145.935 28.2706 146.081 28.145 145.427C28.0195 144.772 26.9551 141.258 26.9551 141.258" stroke="#525BCE" stroke-width="0.75" stroke-miterlimit="10"/>
<path fill-rule="evenodd" clip-rule="evenodd" d="M33.056 96.6624C33.548 99.7435 33.1614 102.467 30.5355 102.88C27.9095 103.288 24.2643 102.538 23.5513 98.1476C23.0492 95.0665 24.7864 92.232 27.4124 91.8242C30.0384 91.4164 32.5639 93.5813 33.056 96.6624Z" fill="#FFCBBB"/>
<path d="M30.9314 96.6927C30.8761 96.9746 30.9263 97.3673 31.1774 97.4781C31.2477 97.5083 31.323 97.4932 31.3732 97.4378C31.7297 97.0904 31.0468 96.1037 30.9314 96.6927Z" fill="#28364C"/>
<path d="M30.0586 95.9934C30.7063 95.6403 31.3239 95.6756 31.8712 95.8673" stroke="#28364C" stroke-width="0.5" stroke-miterlimit="10" stroke-linecap="round" stroke-linejoin="round"/>
<path d="M32.6387 99.8896L30.9265 99.8947C30.9265 99.8947 30.8261 101.319 31.6747 101.47C32.3826 101.591 32.6387 99.8896 32.6387 99.8896Z" fill="white"/>
<path fill-rule="evenodd" clip-rule="evenodd" d="M29.1444 106.258C29.1444 106.258 27.1008 106.611 25.1778 106.087C22.9083 105.468 22.2656 104.541 22.2656 104.541L25.4088 97.9613L30.259 100.166L29.1444 106.258Z" fill="#FFCBBB"/>
<path d="M29.7514 102.961C29.7514 102.961 27.6375 103.031 26.543 101.989" stroke="#EF977F" stroke-miterlimit="10"/>
<path fill-rule="evenodd" clip-rule="evenodd" d="M32.5029 96.5719C32.5029 96.5719 33.8134 98.5051 33.7481 98.8475C33.6829 99.1898 32.7289 99.3409 32.7289 99.3409" fill="#FFCBBB"/>
<path d="M25.4388 100.927C25.1526 101.053 24.8112 101.103 24.5351 101.133C23.9175 101.204 23.2798 101.108 22.7275 100.821C21.7183 100.292 21.0706 99.0891 21.2965 97.9664C21.3317 97.7852 21.3919 97.6039 21.422 97.4176C21.5576 96.5567 21.0555 95.7361 20.9149 94.8752C20.7794 94.0395 20.9953 93.1635 21.4672 92.4586C21.9342 91.7538 22.6421 91.2252 23.4304 90.9231C24.0581 90.6815 24.7459 90.5959 25.2681 90.1428C25.5091 89.9313 25.73 89.6947 26.0062 89.5235C27.3117 88.6979 29.1744 89.151 30.3393 90.0219C30.4799 90.1226 30.6155 90.2384 30.7811 90.2837C31.0673 90.3593 31.3686 90.2384 31.6598 90.2988C32.7795 90.5254 33.2715 92.1818 33.2615 93.1736C33.2565 93.4656 33.1862 93.7676 33.0105 93.9992C32.7594 94.3365 32.3326 94.4976 31.9159 94.548C31.3335 94.6185 30.7309 94.5027 30.1585 94.6738C29.7569 94.7947 29.4154 95.0565 29.0238 95.2125C28.4263 95.4542 27.7234 95.429 27.1409 95.1521C27.2564 95.5599 27.3418 95.9929 27.2815 96.4158C27.161 97.2062 26.4932 97.5989 25.7853 97.7952C26.0213 98.5957 26.2121 99.5976 25.961 100.413C25.8807 100.66 25.6798 100.821 25.4388 100.927Z" fill="#14122D"/>
<path d="M26.4072 97.1458C26.4072 97.1458 25.7796 96.3806 25.0415 96.9948C24.0875 97.7902 25.3277 99.507 26.0859 99.7889C26.839 100.071 27.065 99.2301 27.065 99.2301" fill="#FFCBBB"/>
<path d="M69.401 108.817C74.3078 117.756 71.042 129.024 62.0999 133.978C60.8784 134.655 59.6159 135.18 58.3286 135.558C56.7112 136.034 55.0655 136.276 53.4263 136.303C51.9646 136.324 50.5101 136.17 49.1002 135.853C48.6692 135.756 48.2413 135.643 47.8164 135.513C45.9532 134.951 44.1824 134.094 42.574 132.968C42.2616 132.748 41.952 132.516 41.6497 132.277C39.8119 130.808 38.2285 128.958 37.0231 126.766C36.913 126.567 36.8056 126.362 36.7077 126.157C32.2647 117.321 35.5852 106.448 44.3242 101.605C46.4746 100.412 48.7567 99.6938 51.0516 99.4142C51.4958 99.362 51.9394 99.3239 52.3824 99.3001C54.3198 99.2063 56.2493 99.4202 58.0984 99.9227C58.5052 100.033 58.909 100.159 59.3076 100.295C60.727 100.786 62.0872 101.45 63.3556 102.282C64.6631 103.136 65.8714 104.164 66.9429 105.356C67.725 106.229 68.4327 107.184 69.0543 108.224C69.1739 108.418 69.2887 108.616 69.401 108.817Z" fill="#FDD462"/>
<path opacity="0.3" d="M66.9421 105.356L58.3279 135.558C56.7104 136.034 55.0648 136.276 53.4256 136.303L63.3571 102.284C64.6648 103.134 65.8731 104.162 66.9421 105.356Z" fill="white"/>
<path opacity="0.3" d="M52.3847 99.2978L42.5741 132.963C42.2617 132.743 41.9521 132.511 41.6499 132.272L51.0517 99.4094C51.4959 99.3572 51.9395 99.3192 52.3847 99.2978Z" fill="white"/>
<path opacity="0.3" d="M59.3096 100.292L49.0977 135.845C48.6667 135.749 48.2388 135.636 47.8139 135.506L58.1006 99.9156C58.5072 100.03 58.911 100.157 59.3096 100.292Z" fill="white"/>
<path d="M66.1501 110.621C66.2602 110.819 66.363 111.02 66.4635 111.222C69.9168 118.254 67.2507 126.89 60.316 130.734C53.3813 134.578 44.6934 132.241 40.6138 125.553C40.4988 125.359 40.3838 125.165 40.2738 124.967C36.3567 117.833 38.9749 108.809 46.1102 104.856C53.2435 100.896 62.2355 103.484 66.1501 110.621Z" fill="#F37E00"/>
<path d="M66.4635 111.217C69.9168 118.249 67.2507 126.885 60.316 130.729C60.1612 130.813 60.0065 130.898 59.8497 130.975C58.2733 131.776 56.6148 132.272 54.9449 132.473C53.2771 132.676 51.6001 132.587 49.9838 132.229C49.5738 132.14 49.167 132.03 48.7656 131.906C46.9382 131.334 45.2221 130.412 43.73 129.16C43.3712 128.86 43.0248 128.543 42.6935 128.209C41.9126 127.421 41.2118 126.528 40.6115 125.546C37.1582 118.514 39.8243 109.878 46.759 106.034C47.637 105.548 48.5417 105.16 49.4637 104.869C49.9331 104.721 50.4087 104.594 50.8856 104.493C52.8335 104.085 54.8192 104.083 56.7257 104.455C57.1361 104.534 57.5457 104.632 57.9521 104.751C59.5222 105.198 61.0201 105.908 62.3712 106.854C63.69 107.78 64.8673 108.928 65.8444 110.289C66.0637 110.591 66.2709 110.9 66.4635 111.217Z" fill="#F7A219"/>
<path opacity="0.2" d="M65.8494 110.294L59.8476 130.977C58.2712 131.778 56.6128 132.274 54.9428 132.475L62.3761 106.859C63.6949 107.785 64.8722 108.933 65.8494 110.294Z" fill="#FBE6A1"/>
<path opacity="0.2" d="M50.8902 104.499L43.7324 129.162C43.3736 128.862 43.0273 128.546 42.6959 128.212L49.4686 104.87C49.9355 104.724 50.4111 104.597 50.8902 104.499Z" fill="#FBE6A1"/>
<path opacity="0.2" d="M57.956 104.756L49.983 132.234C49.573 132.145 49.1662 132.035 48.7647 131.911L56.7271 104.462C57.1422 104.541 57.5496 104.637 57.956 104.756Z" fill="#FBE6A1"/>
<path fill-rule="evenodd" clip-rule="evenodd" d="M51.8555 117.393L55.7236 118.589L55.0684 120.693L52.0613 119.763C52.0107 120.71 51.9318 121.355 51.8246 121.699C51.7014 122.095 51.3641 122.741 50.813 123.636L50.9856 123.76C51.2302 123.94 51.4534 124.105 51.655 124.257C51.8566 124.409 52.0408 124.549 52.208 124.676C53.1217 125.421 53.8186 125.867 54.2984 126.016C54.6666 126.13 55.0279 126.1 55.3827 125.927C55.5711 125.834 55.792 125.69 56.0455 125.495C56.2987 125.299 56.5903 125.05 56.9197 124.746L58.8596 126.931C57.9024 127.984 57.0075 128.655 56.1755 128.945C55.3293 129.249 54.4094 129.248 53.4157 128.941C52.696 128.718 51.6784 128.125 50.3631 127.162C49.1037 126.169 48.1872 125.584 47.6133 125.406C47.1421 125.26 46.7345 125.257 46.3908 125.396C46.0469 125.535 45.5912 125.913 45.0236 126.53L42.8593 124.431C44.0553 123.396 44.9451 122.77 45.5289 122.554C46.2137 122.285 47.0306 122.24 47.9796 122.42C48.3968 121.804 48.6911 121.221 48.8626 120.67C49.0475 120.076 49.0771 119.453 48.9514 118.801L45.559 117.752L46.2142 115.648L48.54 116.368C48.2263 114.45 48.2528 112.902 48.62 111.723C49.1532 110.011 50.2499 108.751 51.9101 107.943C53.5872 107.141 55.3427 107.024 57.176 107.591C59.018 108.16 60.3412 109.234 61.1456 110.813C61.9638 112.377 62.077 114.111 61.4848 116.012L58.2004 116.199C58.6479 114.762 58.8157 113.711 58.7041 113.044C58.495 111.725 57.6879 110.848 56.2831 110.413C55.2463 110.093 54.288 110.169 53.4083 110.642C52.5311 111.107 51.929 111.864 51.6021 112.914C51.3288 113.791 51.3916 115.188 51.7904 117.104C51.7996 117.135 51.8088 117.173 51.8182 117.219C51.8274 117.264 51.8399 117.322 51.8555 117.393" fill="#F37E00"/>
<path fill-rule="evenodd" clip-rule="evenodd" d="M51.1582 117.13L55.0263 118.326L54.3711 120.43L51.3641 119.5C51.3135 120.447 51.2345 121.092 51.1273 121.436C51.0041 121.832 50.6669 122.478 50.1158 123.373L50.2883 123.497C50.5329 123.677 50.7561 123.843 50.9577 123.994C51.1593 124.147 51.3436 124.286 51.5108 124.413C52.4244 125.158 53.1213 125.605 53.6011 125.753C53.9693 125.867 54.3306 125.837 54.6854 125.664C54.8738 125.571 55.0947 125.427 55.3482 125.232C55.6014 125.037 55.893 124.787 56.2224 124.483L58.1623 126.668C57.2051 127.721 56.3102 128.393 55.4782 128.682C54.6321 128.987 53.7121 128.985 52.7185 128.678C51.9987 128.455 50.9811 127.862 49.6658 126.899C48.4065 125.906 47.49 125.321 46.9161 125.143C46.4449 124.998 46.0373 124.994 45.6935 125.133C45.3496 125.272 44.894 125.65 44.3263 126.267L42.1621 124.168C43.358 123.133 44.2479 122.507 44.8316 122.291C45.5165 122.022 46.3333 121.977 47.2823 122.158C47.6995 121.542 47.9938 120.958 48.1653 120.407C48.3502 119.813 48.3798 119.191 48.2542 118.539L44.8617 117.49L45.5169 115.386L47.8428 116.105C47.529 114.187 47.5556 112.639 47.9228 111.46C48.4559 109.748 49.5527 108.488 51.2129 107.68C52.89 106.878 54.6454 106.761 56.4788 107.328C58.3208 107.897 59.6439 108.972 60.4484 110.55C61.2665 112.115 61.3797 113.848 60.7876 115.749L57.5032 115.937C57.9507 114.5 58.1185 113.448 58.0068 112.781C57.7977 111.462 56.9906 110.585 55.5858 110.151C54.549 109.83 53.5908 109.906 52.711 110.379C51.8339 110.844 51.2317 111.601 50.9048 112.651C50.6315 113.529 50.6944 114.925 51.0932 116.841C51.1024 116.872 51.1116 116.91 51.121 116.956C51.1301 117.001 51.1426 117.059 51.1582 117.13" fill="#FDD462"/>
<path d="M52.1504 129.936C53.6266 130.061 60.2894 130.741 60.2292 131.139C60.1739 131.521 57.9195 131.647 58.0049 131.854C58.1254 132.146 59.8225 132.402 60.7915 132.458C61.6501 132.508 63.0258 132.73 63.0509 133.107C63.1012 133.827 58.3814 133.495 58.3814 133.495C58.3965 133.711 63.5229 132.901 63.6284 133.5C63.779 134.361 58.3162 134.784 58.1404 134.99C58.1404 134.99 62.7748 133.304 62.8903 133.943C63.0007 134.582 58.8986 136.188 57.5931 136.214C58.6626 135.992 61.8158 134.21 61.8961 134.678C61.9765 135.141 59.1898 136.355 58.7379 136.43C55.0073 137.049 51.1914 136.682 51.1914 136.682" fill="#FFCBBD"/>
<path d="M29.2288 105.835C29.2288 105.835 27.7978 106.515 25.6288 105.574C23.2739 104.547 22.7768 103.369 22.7768 103.369C22.7768 103.369 10.0035 104.501 5.33398 140.035L31.4882 143.287C31.4882 143.287 33.592 130.585 33.2556 120.31C33.0447 113.765 30.5091 108.67 29.2288 105.835Z" fill="#3629B7"/>
<path d="M21.5527 120.058C21.5527 120.058 25.5745 133.571 36.4399 136.496C46.1204 139.098 53.6669 139.088 53.6669 139.088L54.7213 129.981C54.7213 129.981 42.8919 127.851 38.0215 124.624C34.316 122.167 33.593 114.288 32.6541 111.504C31.3537 107.638 29.2248 105.84 29.2248 105.84" fill="#3629B7"/>
<path d="M21.7383 103.64C21.7383 103.64 22.5416 106.117 26.2672 106.933C28.9886 107.527 30.058 106.711 30.058 106.711" stroke="#121649" stroke-width="0.75" stroke-miterlimit="10"/>
<path d="M32.1769 134.965C32.1769 134.965 22.2705 130.379 21.7383 117.38" stroke="#121649" stroke-width="0.75" stroke-miterlimit="10"/>
<path d="M52.522 129.538L51.1914 138.983" stroke="#121649" stroke-width="0.75" stroke-miterlimit="10"/>
<path fill-rule="evenodd" clip-rule="evenodd" d="M137.072 104.051C135.081 105.646 133.824 108.003 133.535 110.687C133.493 111.076 133.471 111.471 133.471 111.861C133.471 112.899 133.619 113.93 133.91 114.927C134.18 115.851 134.571 116.736 135.073 117.561L133.455 118.305L133 118.514L133.473 118.671L137.236 119.918L137.485 120L137.476 119.724L137.34 115.551L137.322 115.002L137.009 115.439L136.093 116.714C135.221 115.239 134.761 113.566 134.761 111.86C134.761 111.521 134.779 111.179 134.816 110.842C135.065 108.531 136.144 106.505 137.853 105.137L138 105.019L137.889 104.863L137.334 104.087L137.288 104.021L137.209 104.01L137.13 104L137.072 104.051Z" fill="#3629B7"/>
<path fill-rule="evenodd" clip-rule="evenodd" d="M160.928 119.949C162.919 118.354 164.176 115.997 164.465 113.313C164.507 112.925 164.529 112.529 164.529 112.139C164.529 111.101 164.381 110.07 164.09 109.073C163.82 108.149 163.429 107.264 162.927 106.439L164.545 105.695L165 105.486L164.527 105.329L160.764 104.082L160.515 104L160.524 104.276L160.66 108.449L160.677 108.998L160.991 108.561L161.907 107.286C162.779 108.761 163.239 110.434 163.239 112.14C163.239 112.479 163.221 112.821 163.184 113.158C162.935 115.469 161.856 117.495 160.147 118.863L160 118.981L160.111 119.137L160.666 119.913L160.713 119.98L160.791 119.99L160.87 120L160.928 119.949Z" fill="#FF4267"/>
<defs>
<filter id="filter0_d_3015_8932" x="83.9131" y="9.13806" width="130.42" height="215.89" filterUnits="userSpaceOnUse" color-interpolation-filters="sRGB">
<feFlood flood-opacity="0" result="BackgroundImageFix"/>
<feColorMatrix in="SourceAlpha" type="matrix" values="0 0 0 0 0 0 0 0 0 0 0 0 0 0 0 0 0 0 127 0" result="hardAlpha"/>
<feOffset dy="4"/>
<feGaussianBlur stdDeviation="7.5"/>
<feColorMatrix type="matrix" values="0 0 0 0 0 0 0 0 0 0 0 0 0 0 0 0 0 0 0.1 0"/>
<feBlend mode="normal" in2="BackgroundImageFix" result="effect1_dropShadow_3015_8932"/>
<feBlend mode="normal" in="SourceGraphic" in2="effect1_dropShadow_3015_8932" result="shape"/>
</filter>
</defs>
</svg>
