<svg width="344" height="239" viewBox="0 0 344 239" fill="none" xmlns="http://www.w3.org/2000/svg">
<path d="M344 225.251H0V225.423H344V225.251Z" fill="#EBEBEB"/>
<path d="M309.531 236.321H299.28V236.493H309.531V236.321Z" fill="#EBEBEB"/>
<path d="M227.879 238.193H221.9V238.365H227.879V238.193Z" fill="#EBEBEB"/>
<path d="M296.376 229.937H272.854V230.109H296.376V229.937Z" fill="#EBEBEB"/>
<path d="M75.4257 233.487H45.7109V233.659H75.4257V233.487Z" fill="#EBEBEB"/>
<path d="M92.2679 233.487H81.5488V233.659H92.2679V233.487Z" fill="#EBEBEB"/>
<path d="M175.275 231.175H110.823V231.347H175.275V231.175Z" fill="#EBEBEB"/>
<path d="M163.056 194.566H30.2097C29.169 194.565 28.1715 194.15 27.4363 193.413C26.701 192.677 26.2881 191.679 26.2881 190.638V3.89408C26.2971 2.85935 26.7141 1.86997 27.4484 1.14085C28.1826 0.411739 29.1749 0.00177255 30.2097 0H163.056C164.098 0 165.097 0.413892 165.833 1.15063C166.57 1.88736 166.984 2.88658 166.984 3.92848V190.638C166.984 191.68 166.57 192.679 165.833 193.416C165.097 194.153 164.098 194.566 163.056 194.566V194.566ZM30.2097 0.137601C29.2146 0.139423 28.2609 0.535997 27.5579 1.24028C26.8549 1.94456 26.4601 2.89899 26.4601 3.89408V190.638C26.4601 191.633 26.8549 192.587 27.5579 193.292C28.2609 193.996 29.2146 194.393 30.2097 194.394H163.056C164.051 194.393 165.006 193.996 165.71 193.292C166.414 192.588 166.81 191.634 166.812 190.638V3.89408C166.81 2.89836 166.414 1.94394 165.71 1.23986C165.006 0.535773 164.051 0.139419 163.056 0.137601H30.2097Z" fill="#EBEBEB"/>
<path d="M311.877 194.566H179.024C177.983 194.565 176.985 194.15 176.248 193.414C175.512 192.677 175.098 191.679 175.096 190.638V3.89408C175.107 2.85872 175.525 1.86935 176.26 1.14042C176.996 0.411499 177.989 0.00175322 179.024 0H311.877C312.911 0.00358069 313.901 0.414347 314.634 1.14327C315.367 1.87219 315.783 2.86053 315.792 3.89408V190.638C315.792 191.677 315.38 192.675 314.646 193.411C313.912 194.147 312.916 194.563 311.877 194.566V194.566ZM179.024 0.137601C178.028 0.139419 177.074 0.535773 176.37 1.23986C175.666 1.94394 175.27 2.89836 175.268 3.89408V190.638C175.27 191.634 175.666 192.588 176.37 193.292C177.074 193.996 178.028 194.393 179.024 194.394H311.877C312.873 194.393 313.827 193.996 314.531 193.292C315.235 192.588 315.632 191.634 315.633 190.638V3.89408C315.632 2.89836 315.235 1.94394 314.531 1.23986C313.827 0.535773 312.873 0.139419 311.877 0.137601H179.024Z" fill="#EBEBEB"/>
<path d="M152.392 220.229H157.827V183.008H152.392V220.229Z" fill="#F0F0F0"/>
<path d="M42.4569 225.251H154.243V220.229H42.4569V225.251Z" fill="#F0F0F0"/>
<path d="M152.392 183.008H38.8652V220.229H152.392V183.008Z" fill="#F5F5F5"/>
<path d="M145.044 189.489H46.2061V210.748H145.044V189.489Z" fill="#F0F0F0"/>
<path d="M71.5868 192.33H119.678C120.579 192.33 121.309 191.6 121.309 190.7V190.397C121.309 189.497 120.579 188.767 119.678 188.767H71.5868C70.6863 188.767 69.9563 189.497 69.9563 190.397V190.7C69.9563 191.6 70.6863 192.33 71.5868 192.33Z" fill="#F5F5F5"/>
<path d="M36.3742 183.008H152.392V179.685H36.3742V183.008Z" fill="#F0F0F0"/>
<path d="M160.434 179.685H152.392V183.008H160.434V179.685Z" fill="#FFCC00"/>
<path d="M148.243 130.589L293.707 130.589V19.03L148.243 19.03V130.589Z" fill="#FFCC00"/>
<path d="M134.628 14.6887H301.936C302.27 14.6887 302.59 14.8214 302.826 15.0575C303.062 15.2936 303.195 15.6139 303.195 15.9478V15.9478C303.193 16.2805 303.06 16.599 302.824 16.8336C302.588 17.0682 302.269 17.1999 301.936 17.1999H134.628C134.462 17.2008 134.298 17.1689 134.144 17.1061C133.991 17.0432 133.851 16.9506 133.734 16.8336C133.616 16.7166 133.523 16.5775 133.459 16.4243C133.395 16.2711 133.362 16.1068 133.362 15.9409V15.9409C133.363 15.7756 133.397 15.612 133.461 15.4596C133.525 15.3072 133.618 15.1689 133.736 15.0526C133.853 14.9364 133.993 14.8444 134.146 14.7819C134.299 14.7195 134.463 14.6878 134.628 14.6887Z" fill="#FFCC00"/>
<path d="M142.85 130.589L291.189 130.589V19.03L142.85 19.03V130.589Z" fill="#F0F0F0"/>
<path d="M148.244 130.589H293.707V134.16H144.528L148.244 130.589Z" fill="#FFCC00"/>
<path d="M133.865 130.589H282.204L278.489 134.16H130.156L133.865 130.589Z" fill="#F0F0F0"/>
<path d="M283.635 123.042V26.5774L150.397 26.5774V123.042L283.635 123.042Z" fill="#FAFAFA"/>
<path d="M239.176 123.035L194.876 26.5774H173.954L218.261 123.035H239.176Z" fill="white"/>
<path d="M213.769 123.035L169.461 26.5774H161.309L205.616 123.035H213.769Z" fill="white"/>
<path d="M151.36 123.042V26.5774H150.404V123.042H151.36Z" fill="#FFCC00"/>
<g opacity="0.4">
<path opacity="0.4" d="M283.553 104.487H296.542V12.4253H283.553V104.487Z" fill="#F0F0F0"/>
<path opacity="0.4" d="M278.489 104.487H288.609V12.4253H278.489V104.487Z" fill="#FFCC00"/>
<path opacity="0.4" d="M270.562 104.487H283.552V12.4253H270.562V104.487Z" fill="#F0F0F0"/>
<path opacity="0.4" d="M265.499 104.487H275.619V12.4253H265.499V104.487Z" fill="#FFCC00"/>
<path opacity="0.4" d="M257.566 104.487H270.556V12.4253H257.566V104.487Z" fill="#F0F0F0"/>
</g>
<g opacity="0.4">
<path opacity="0.4" d="M155.24 104.487H162.726V12.4253H155.24V104.487Z" fill="#F0F0F0"/>
<path opacity="0.4" d="M152.316 104.487H158.15V12.4253H152.316V104.487Z" fill="#FFCC00"/>
<path opacity="0.4" d="M147.748 104.487H155.233V12.4253H147.748V104.487Z" fill="#F0F0F0"/>
<path opacity="0.4" d="M144.831 104.487H150.665V12.4253H144.831V104.487Z" fill="#FFCC00"/>
<path opacity="0.4" d="M140.263 104.487H147.748V12.4253H140.263V104.487Z" fill="#F0F0F0"/>
</g>
<path d="M108.153 12.4872H48.3867V165.196H108.153V12.4872Z" fill="#F5F5F5"/>
<path d="M108.16 165.189H109.798L109.798 12.4804H108.16L108.16 165.189Z" fill="#E0E0E0"/>
<path d="M102.615 159.657L102.615 18.0187L53.9186 18.0187L53.9186 159.657H102.615Z" fill="white"/>
<path d="M71.0635 159.657L87.2246 18.0187H96.547L80.3928 159.657H71.0635Z" fill="#FAFAFA"/>
<path d="M62.9863 159.657L79.1406 18.0187H83.8052L67.651 159.657H62.9863Z" fill="#FAFAFA"/>
<path d="M181 237.161C254.673 237.161 314.396 233.674 314.396 229.373C314.396 225.072 254.673 221.585 181 221.585C107.327 221.585 47.6035 225.072 47.6035 229.373C47.6035 233.674 107.327 237.161 181 237.161Z" fill="#F5F5F5"/>
<path d="M282.858 229.373H202.5C201.38 229.385 200.271 229.164 199.241 228.724C198.212 228.283 197.286 227.633 196.521 226.815C195.757 225.997 195.171 225.029 194.802 223.972C194.432 222.915 194.287 221.793 194.375 220.677L205.589 50.6927C205.777 48.3507 206.83 46.1626 208.543 44.5548C210.256 42.9471 212.507 42.035 214.856 41.9964H295.208C296.327 41.9853 297.436 42.2072 298.464 42.648C299.493 43.0888 300.418 43.7389 301.182 44.5569C301.945 45.3749 302.53 46.3428 302.9 47.3992C303.269 48.4555 303.414 49.5771 303.326 50.6927L292.126 220.677C291.938 223.019 290.885 225.207 289.171 226.815C287.458 228.422 285.207 229.335 282.858 229.373Z" fill="#263238"/>
<path d="M299.777 87.7071H290.049C289.779 87.7098 289.511 87.6563 289.263 87.55C289.014 87.4437 288.791 87.2868 288.606 87.0895C288.422 86.8921 288.281 86.6586 288.191 86.4036C288.102 86.1487 288.067 85.878 288.088 85.6087L289.058 70.8855C289.112 70.3257 289.371 69.8055 289.785 69.4247C290.199 69.0438 290.739 68.829 291.301 68.8215H301.022C301.289 68.8191 301.554 68.8717 301.8 68.9759C302.046 69.0802 302.267 69.2338 302.451 69.4274C302.635 69.621 302.777 69.8503 302.869 70.1012C302.96 70.352 302.999 70.619 302.983 70.8855L302.013 85.6087C301.969 86.1741 301.715 86.7025 301.301 87.0906C300.888 87.4787 300.344 87.6986 299.777 87.7071V87.7071Z" fill="#263238"/>
<path d="M235.889 39.5884H232.332V40.2764H235.889V39.5884Z" fill="#FFA5A7"/>
<path d="M227.949 39.5884H215.015V40.2764H227.949V39.5884Z" fill="#FFA5A7"/>
<path d="M281.634 229.373H201.276C200.156 229.384 199.047 229.162 198.018 228.722C196.989 228.281 196.064 227.631 195.299 226.813C194.535 225.995 193.95 225.027 193.58 223.971C193.21 222.915 193.063 221.793 193.15 220.677L204.392 50.6927C204.58 48.3507 205.633 46.1626 207.347 44.5549C209.06 42.9471 211.31 42.0351 213.66 41.9964H294.018C295.133 41.992 296.237 42.2189 297.259 42.6627C298.282 43.1065 299.202 43.7575 299.96 44.5748C300.719 45.392 301.299 46.3576 301.666 47.4107C302.032 48.4637 302.176 49.5812 302.088 50.6927L290.901 220.677C290.714 223.019 289.66 225.207 287.947 226.815C286.234 228.422 283.983 229.335 281.634 229.373Z" fill="#F37E00"/>
<path d="M285.28 209.573H200.264C199.628 209.579 198.998 209.454 198.413 209.203C197.829 208.953 197.302 208.584 196.868 208.119C196.434 207.655 196.101 207.105 195.891 206.504C195.681 205.904 195.598 205.267 195.648 204.633L205.411 56.6439C205.516 55.317 206.111 54.0766 207.08 53.1637C208.049 52.2509 209.322 51.7306 210.653 51.7041H295.69C296.326 51.6974 296.956 51.8231 297.541 52.0733C298.126 52.3235 298.652 52.6927 299.086 53.1573C299.52 53.622 299.853 54.172 300.063 54.7722C300.273 55.3725 300.356 56.0099 300.306 56.6439L290.544 204.633C290.438 205.963 289.84 207.206 288.867 208.12C287.893 209.033 286.615 209.551 285.28 209.573V209.573Z" fill="white"/>
<path d="M269.422 51.7041H252.538L211.637 209.573H228.52L269.422 51.7041Z" fill="#FAFAFA"/>
<path d="M284.296 51.7041H275.855L234.953 209.573H243.395L284.296 51.7041Z" fill="#FAFAFA"/>
<path d="M273.082 160.656L254.726 91.2296C254.235 89.3839 253.033 87.808 251.382 86.8473C249.731 85.8865 247.767 85.6193 245.92 86.104L202.493 97.5799L196.7 188.3L267.956 169.469C269.802 168.975 271.376 167.771 272.337 166.119C273.297 164.468 273.565 162.504 273.082 160.656V160.656Z" fill="#F0F0F0"/>
<path opacity="0.2" d="M245.845 221.326C248.052 219.192 248.222 215.787 246.224 213.723C244.227 211.658 240.819 211.715 238.613 213.849C236.406 215.984 236.236 219.388 238.234 221.453C240.231 223.518 243.639 223.461 245.845 221.326Z" fill="white"/>
<path opacity="0.2" d="M255.738 46.5716C255.69 47.1711 255.42 47.7311 254.981 48.1421C254.542 48.5531 253.965 48.7855 253.364 48.7938C253.079 48.7947 252.797 48.7365 252.536 48.6231C252.275 48.5096 252.04 48.3432 251.846 48.1345C251.652 47.9257 251.503 47.6791 251.409 47.4101C251.315 47.1412 251.278 46.8557 251.3 46.5716C251.346 45.9716 251.616 45.4107 252.055 44.9994C252.494 44.5881 253.072 44.3562 253.674 44.3494C253.959 44.3485 254.24 44.4067 254.502 44.5202C254.763 44.6336 254.998 44.8 255.192 45.0087C255.386 45.2175 255.534 45.4641 255.628 45.7331C255.722 46.0021 255.759 46.2875 255.738 46.5716V46.5716Z" fill="white"/>
<path opacity="0.2" d="M254.734 46.5716C254.71 46.9014 254.563 47.2102 254.322 47.437C254.081 47.6637 253.764 47.7919 253.433 47.7962C253.276 47.7987 253.119 47.7681 252.974 47.7063C252.829 47.6445 252.698 47.553 252.59 47.4376C252.483 47.3222 252.4 47.1855 252.349 47.0363C252.297 46.8871 252.278 46.7288 252.291 46.5716C252.315 46.2417 252.462 45.9329 252.703 45.7062C252.944 45.4794 253.261 45.3512 253.592 45.3469C253.749 45.3444 253.906 45.3751 254.051 45.4368C254.196 45.4986 254.327 45.5902 254.435 45.7056C254.542 45.821 254.625 45.9577 254.676 46.1069C254.728 46.256 254.747 46.4143 254.734 46.5716V46.5716Z" fill="white"/>
<path d="M125.492 37.9853C128.059 31.6763 127.137 23.9914 119.858 22.2714C118.254 21.8582 116.575 21.8265 114.957 22.1789C113.338 22.5314 111.825 23.2581 110.538 24.3009C109.251 25.3437 108.226 26.6735 107.546 28.1837C106.866 29.6939 106.549 31.3425 106.62 32.9973C106.909 39.8773 111.436 45.6083 103.504 50.5963C95.5712 55.5843 96.4175 70.6171 111.76 67.7138C127.102 64.8104 118.812 56.9191 118.812 56.9191C118.812 56.9191 115.048 59.9875 113.838 56.864C112.303 52.8186 122.52 45.3675 125.492 37.9853Z" fill="#263238"/>
<path d="M98.4953 58.6804L98.1582 58.6047C99.1833 54.0157 100.793 52.8324 102.493 51.5802C104.192 50.3281 105.802 49.1378 107.102 44.6245C107.715 42.4986 107.329 40.1456 106.951 37.8753C106.469 34.9788 105.974 31.9791 107.467 29.2959L107.763 29.4679C106.332 32.041 106.82 34.9719 107.288 37.8202C107.673 40.1319 108.072 42.5193 107.432 44.7002C106.105 49.3236 104.371 50.5964 102.699 51.8348C101.027 53.0732 99.4929 54.2221 98.4953 58.6804Z" fill="#263238"/>
<path d="M145.032 72.6399C145.08 72.8738 145.163 73.2247 145.239 73.5412L145.479 74.5113C145.644 75.1649 145.83 75.8185 146.023 76.4721C146.415 77.7724 146.835 79.0865 147.289 80.3799C148.197 82.9827 149.235 85.5384 150.399 88.0373L151.265 89.8468C151.412 90.1703 151.62 90.4623 151.878 90.7068C152.651 91.3287 153.574 91.7367 154.554 91.8902C157.127 92.306 159.749 92.306 162.322 91.8902L163.25 94.8142C162.539 95.1279 161.811 95.4035 161.069 95.6398C160.333 95.8847 159.584 96.0914 158.827 96.2589C157.248 96.6225 155.629 96.7729 154.011 96.7062C152.106 96.6525 150.255 96.0688 148.665 95.0206C147.77 94.3998 147.015 93.5982 146.449 92.6676L146.339 92.4956L146.271 92.3786L146.133 92.1309L145.851 91.6493L145.294 90.6724C143.854 88.0483 142.59 85.3316 141.51 82.5402C140.987 81.1642 140.471 79.7263 140.051 78.2746C139.845 77.5866 139.638 76.8229 139.452 76.0799C139.267 75.3369 139.102 74.6351 138.95 73.7545L145.032 72.6399Z" fill="#FFBE9D"/>
<path d="M139.721 63.0216C146.662 66.1176 146.601 76.5202 146.601 76.5202L139.287 80.9165C139.287 80.9165 133.783 72.7706 134.196 69.0692C134.602 65.2095 135.785 61.281 139.721 63.0216Z" fill="#705CF6"/>
<path opacity="0.2" d="M140.815 71.8968C138.916 69.9773 137.244 72.1926 135.717 74.6488C136.764 76.8206 137.957 78.9192 139.288 80.9302L142.287 79.1277C142.879 76.8366 142.707 73.8232 140.815 71.8968Z" fill="black"/>
<path d="M161.599 92.1516L166.484 89.7161L166.539 96.1076C166.539 96.1076 162.893 96.7406 160.464 94.1812L161.599 92.1516Z" fill="#FFBE9D"/>
<path d="M171.733 90.8513L170.893 95.5985L166.538 96.1076L166.483 89.7161L171.733 90.8513Z" fill="#FFBE9D"/>
<path d="M116.886 224.296L122.926 224.874L125.74 210.818L119.7 210.24L116.886 224.296Z" fill="#FFBE9D"/>
<path d="M77.2773 207.818L82.1897 211.396L90.3838 199.769L85.4645 196.191L77.2773 207.818Z" fill="#FFBE9D"/>
<path d="M83.9925 209.16L79.9471 203.621C79.8798 203.523 79.7786 203.454 79.663 203.426C79.5474 203.398 79.4256 203.413 79.321 203.47L74.4706 206.043C74.3507 206.113 74.2468 206.207 74.1659 206.319C74.0849 206.432 74.0286 206.56 74.0007 206.696C73.9727 206.832 73.9738 206.972 74.0038 207.107C74.0338 207.242 74.092 207.37 74.1747 207.481C75.6195 209.387 76.4107 210.233 78.1926 212.675C79.2934 214.175 81.495 217.65 83.0086 219.721C84.5223 221.791 86.6482 220.409 86.2079 219.411C84.2127 214.932 84.1439 212.311 84.2952 210.212C84.3241 209.837 84.2166 209.463 83.9925 209.16Z" fill="#263238"/>
<path d="M123.725 223.05H116.473C116.343 223.051 116.216 223.094 116.113 223.173C116.01 223.253 115.936 223.365 115.902 223.491L114.327 229.208C114.288 229.343 114.282 229.486 114.308 229.624C114.334 229.762 114.392 229.892 114.478 230.004C114.564 230.116 114.674 230.206 114.801 230.267C114.927 230.328 115.067 230.359 115.207 230.357C117.767 230.357 118.978 230.357 122.163 230.357H131.912C134.561 230.357 135.111 227.681 134.017 227.433C129.105 226.346 126.27 224.846 124.75 223.415C124.467 223.168 124.1 223.038 123.725 223.05Z" fill="#263238"/>
<path opacity="0.2" d="M125.74 210.825L124.288 218.069H118.131L119.699 210.247L125.74 210.825Z" fill="black"/>
<path opacity="0.2" d="M85.4646 196.191L90.3838 199.775L86.1594 205.768L81.2402 202.183L85.4646 196.191Z" fill="black"/>
<path d="M142.583 68.505C142.156 73.149 140.615 82.265 136.109 100.077L111.382 97.9377C112.572 88.6565 113.13 82.6434 110.804 65.0719C110.729 64.4911 110.773 63.9009 110.935 63.3381C111.098 62.7753 111.374 62.2518 111.747 61.8001C112.119 61.3485 112.581 60.9783 113.103 60.7127C113.625 60.447 114.196 60.2915 114.781 60.2559C116.563 60.1596 118.682 60.0977 120.808 60.1802C124.569 60.2365 128.321 60.5607 132.036 61.1503C134.217 61.5425 136.542 62.1066 138.434 62.602C139.712 62.9367 140.83 63.7133 141.589 64.794C142.349 65.8746 142.701 67.1894 142.583 68.505Z" fill="#705CF6"/>
<path opacity="0.2" d="M111.437 70.2181C111.753 72.9701 111.987 75.4262 112.125 77.6278C114.402 77.4283 116.081 74.9309 116.253 69.7089C115.399 67.184 113.37 68.099 111.437 70.2181Z" fill="black"/>
<path d="M136.109 100.077C136.109 100.077 144.475 137.092 138.861 163.187C135.125 180.663 126.807 215.964 126.807 215.964L116.26 215.696C116.26 215.696 121.296 178.647 123.408 164.096C127.02 139.176 117.973 98.5361 117.973 98.5361L136.109 100.077Z" fill="#263238"/>
<path opacity="0.2" d="M126.463 107.556L121.186 115.874C122.775 125.736 123.783 135.684 124.206 145.664C131.623 132.386 128.107 114.58 126.463 107.556Z" fill="black"/>
<path d="M128.321 216.514L115.29 216.184L116.047 212.18L129.339 212.806L128.321 216.514Z" fill="#705CF6"/>
<path d="M130.7 99.6851C130.7 99.6851 125.795 138.936 115.152 160.367C106.559 177.677 88.5811 205.19 88.5811 205.19L82.0107 199.927C82.0107 199.927 93.2527 169.497 99.6373 158C115.303 129.792 102.499 108.292 111.381 97.9376L130.7 99.6851Z" fill="#263238"/>
<path d="M233.596 64.7553L116.652 113.89C112.981 115.432 111.255 119.659 112.798 123.33L140.612 189.531C142.155 193.202 146.381 194.928 150.053 193.385L266.996 144.251C270.668 142.708 272.393 138.482 270.851 134.81L243.036 68.6098C241.494 64.9385 237.267 63.2129 233.596 64.7553Z" fill="#705CF6"/>
<path opacity="0.1" d="M233.596 64.7553L116.652 113.89C112.981 115.432 111.255 119.659 112.798 123.33L140.612 189.531C142.155 193.202 146.381 194.928 150.053 193.385L266.996 144.251C270.668 142.708 272.393 138.482 270.851 134.81L243.036 68.6098C241.494 64.9385 237.267 63.2129 233.596 64.7553Z" fill="black"/>
<path opacity="0.2" d="M148.91 110.943L126.012 120.564C124.247 121.305 123.417 123.338 124.159 125.104L128.985 136.591C129.727 138.356 131.759 139.186 133.525 138.444L156.423 128.824C158.188 128.082 159.018 126.049 158.276 124.284L153.45 112.797C152.708 111.031 150.676 110.201 148.91 110.943Z" fill="white"/>
<path opacity="0.4" d="M164.977 156.35L142.543 165.776C141.88 166.054 141.569 166.817 141.847 167.479L143.55 171.532C143.829 172.194 144.591 172.505 145.253 172.227L167.688 162.801C168.35 162.523 168.661 161.76 168.383 161.098L166.68 157.045C166.402 156.383 165.639 156.072 164.977 156.35Z" fill="white"/>
<path opacity="0.4" d="M194.166 144.09L171.731 153.516C171.069 153.794 170.758 154.556 171.036 155.218L172.739 159.271C173.017 159.933 173.779 160.244 174.441 159.966L196.876 150.54C197.538 150.262 197.849 149.5 197.571 148.838L195.868 144.785C195.59 144.123 194.828 143.811 194.166 144.09Z" fill="white"/>
<path opacity="0.4" d="M223.348 131.829L200.914 141.255C200.252 141.533 199.94 142.296 200.219 142.958L201.921 147.011C202.2 147.673 202.962 147.984 203.624 147.706L226.059 138.28C226.721 138.002 227.032 137.239 226.754 136.577L225.051 132.524C224.773 131.862 224.011 131.551 223.348 131.829Z" fill="white"/>
<path opacity="0.4" d="M252.537 119.569L230.102 128.995C229.44 129.273 229.129 130.035 229.407 130.697L231.11 134.75C231.388 135.412 232.15 135.724 232.812 135.445L255.247 126.019C255.909 125.741 256.22 124.979 255.942 124.317L254.239 120.264C253.961 119.602 253.199 119.29 252.537 119.569Z" fill="white"/>
<path d="M89.2698 205.919L80.8418 199.542L82.9127 195.84L91.8704 202.789L89.2698 205.919Z" fill="#705CF6"/>
<path d="M111.134 96.4584L109.827 98.5775C109.724 98.7357 109.916 98.9352 110.199 98.9559L136.136 101.199C136.356 101.199 136.549 101.123 136.576 100.985L136.989 98.7908C137.024 98.6394 136.838 98.4949 136.597 98.4743L111.554 96.3071C111.477 96.2947 111.398 96.3021 111.325 96.3286C111.251 96.3551 111.186 96.3998 111.134 96.4584V96.4584Z" fill="#705CF6"/>
<path opacity="0.5" d="M111.134 96.4584L109.827 98.5775C109.724 98.7357 109.916 98.9352 110.199 98.9559L136.136 101.199C136.356 101.199 136.549 101.123 136.576 100.985L136.989 98.7908C137.024 98.6394 136.838 98.4949 136.597 98.4743L111.554 96.3071C111.477 96.2947 111.398 96.3021 111.325 96.3286C111.251 96.3551 111.186 96.3998 111.134 96.4584V96.4584Z" fill="black"/>
<path d="M114.265 99.5475L113.577 99.4925C113.446 99.4925 113.35 99.4031 113.364 99.3205L113.928 96.4722C113.928 96.3827 114.065 96.3277 114.203 96.3415L114.891 96.3965C115.029 96.3965 115.125 96.4859 115.104 96.5685L114.54 99.4168C114.513 99.4994 114.389 99.5613 114.265 99.5475Z" fill="#705CF6"/>
<path d="M134.216 101.274L133.528 101.219C133.397 101.219 133.301 101.13 133.315 101.047L133.879 98.1991C133.904 98.1498 133.944 98.1101 133.994 98.0865C134.044 98.0628 134.1 98.0564 134.154 98.0684L134.842 98.1235C134.98 98.1235 135.076 98.2129 135.055 98.2955L134.491 101.144C134.484 101.24 134.361 101.288 134.216 101.274Z" fill="#705CF6"/>
<path d="M124.24 100.414L123.552 100.353C123.414 100.353 123.318 100.263 123.339 100.181L123.903 97.3322C123.903 97.2497 124.04 97.1877 124.171 97.2015L124.859 97.2634C124.99 97.2634 125.086 97.3529 125.072 97.4354L124.508 100.284C124.495 100.366 124.378 100.421 124.24 100.414Z" fill="#705CF6"/>
<path d="M85.5334 212.221C85.456 212.235 85.3769 212.235 85.2994 212.221C84.5495 212.07 83.9234 210.797 83.5932 210.054C83.5802 210.035 83.5732 210.012 83.5732 209.989C83.5732 209.965 83.5802 209.943 83.5932 209.923C83.6111 209.91 83.6328 209.903 83.6551 209.903C83.6775 209.903 83.6992 209.91 83.717 209.923C83.951 210.006 86.0012 210.797 86.1594 211.547C86.1784 211.628 86.1743 211.713 86.1476 211.792C86.1208 211.871 86.0725 211.941 86.0081 211.994C85.878 212.118 85.7117 212.198 85.5334 212.221V212.221ZM83.9303 210.212C84.3982 211.237 84.921 211.891 85.3476 211.974C85.4439 211.988 85.5424 211.978 85.6338 211.944C85.7252 211.911 85.8066 211.855 85.8705 211.781C85.9049 211.755 85.931 211.72 85.9457 211.68C85.9604 211.639 85.9629 211.596 85.953 211.554C85.8567 211.093 84.639 210.501 83.9303 210.212Z" fill="#705CF6"/>
<path d="M85.5958 210.309C84.9419 210.39 84.278 210.319 83.6557 210.102C83.6367 210.094 83.6203 210.08 83.6082 210.063C83.5961 210.047 83.5887 210.027 83.5869 210.006C83.5842 209.985 83.5873 209.964 83.5957 209.944C83.6042 209.925 83.6178 209.908 83.635 209.896C83.697 209.855 85.1142 208.823 85.9674 209.015C86.0727 209.035 86.1724 209.078 86.2592 209.141C86.346 209.205 86.4179 209.286 86.4696 209.38C86.5377 209.466 86.5747 209.573 86.5747 209.683C86.5747 209.792 86.5377 209.899 86.4696 209.985C86.2248 210.191 85.9158 210.306 85.5958 210.309ZM83.9928 209.944C84.6808 210.144 85.9674 210.157 86.2838 209.806C86.3389 209.751 86.387 209.662 86.2838 209.483C86.2499 209.419 86.2019 209.364 86.1436 209.321C86.0852 209.278 86.0179 209.249 85.9467 209.235C85.3688 209.118 84.3781 209.689 83.9928 209.944Z" fill="#705CF6"/>
<path d="M126.944 224.22C126.277 224.203 125.614 224.12 124.963 223.972C124.941 223.963 124.922 223.947 124.909 223.927C124.896 223.907 124.889 223.883 124.889 223.859C124.889 223.835 124.896 223.811 124.909 223.791C124.922 223.771 124.941 223.755 124.963 223.745C125.266 223.601 127.894 222.369 128.554 222.837C128.616 222.876 128.664 222.932 128.695 222.998C128.725 223.064 128.736 223.137 128.726 223.209C128.725 223.343 128.692 223.476 128.629 223.595C128.567 223.715 128.478 223.818 128.369 223.897C127.941 224.154 127.442 224.267 126.944 224.22V224.22ZM125.376 223.807C126.16 223.952 127.605 224.144 128.197 223.697C128.273 223.637 128.336 223.561 128.381 223.474C128.426 223.388 128.453 223.292 128.458 223.195C128.458 223.099 128.458 223.057 128.396 223.037C128.025 222.782 126.47 223.326 125.376 223.807Z" fill="#705CF6"/>
<path d="M124.991 223.972C124.966 223.982 124.939 223.982 124.915 223.972C124.897 223.959 124.884 223.941 124.876 223.92C124.869 223.899 124.868 223.877 124.874 223.855C124.874 223.738 125.493 221.145 126.938 221.31C127.296 221.358 127.392 221.53 127.413 221.674C127.502 222.362 125.844 223.67 125.046 223.993L124.991 223.972ZM126.793 221.516C125.878 221.516 125.349 223.03 125.17 223.635C126.03 223.181 127.234 222.101 127.158 221.681C127.158 221.647 127.158 221.551 126.89 221.523L126.793 221.516Z" fill="#705CF6"/>
<path d="M114.12 70.342L113.755 70.858L113.356 71.4428C113.088 71.8418 112.819 72.2478 112.565 72.6674C112.042 73.493 111.567 74.353 111.086 75.213C110.135 76.9429 109.298 78.7333 108.581 80.5726C107.859 82.401 107.254 84.2739 106.772 86.1798L106.449 87.5558C106.449 87.5145 106.407 87.659 106.483 87.9204C106.72 88.6557 107.065 89.3514 107.508 89.9844C108.62 91.5822 109.867 93.0808 111.237 94.4633C112.613 95.9218 114.14 97.3323 115.661 98.7358C117.181 100.139 118.778 101.488 120.374 102.816C121.97 104.143 123.6 105.485 125.19 106.778L123.47 109.317C119.784 107.131 116.226 104.738 112.813 102.148C111.093 100.855 109.407 99.4926 107.776 98.0203C106.067 96.5218 104.507 94.8604 103.119 93.0598C102.287 92.0023 101.636 90.8144 101.192 89.5441C100.891 88.66 100.79 87.72 100.896 86.7921V86.5995V86.4963L100.931 86.2899L101 85.8702L101.144 85.0377C101.549 82.8217 102.119 80.6393 102.85 78.5086C103.606 76.3884 104.5 74.32 105.527 72.3166C106.043 71.3121 106.607 70.342 107.212 69.3857C107.508 68.9041 107.818 68.4294 108.141 67.9546L108.65 67.2666C108.829 67.0258 108.98 66.8126 109.221 66.5167L114.12 70.342Z" fill="#FFBE9D"/>
<path d="M113.508 60.648C108.788 61.8864 104.233 73.3279 104.233 73.3279L110.343 78.9144C110.343 78.9144 119.94 70.1631 119.617 66.214C119.349 62.8565 117.299 59.6436 113.508 60.648Z" fill="#705CF6"/>
<path opacity="0.2" d="M120.807 59.9601C119.942 60.1366 119.061 60.2174 118.179 60.2009C117.993 63.5996 120.174 66.8814 125.534 71.2846C126.82 67.2735 129.662 66.4066 129.662 66.4066L120.807 59.9601Z" fill="black"/>
<path opacity="0.2" d="M132.036 61.0402C132.036 61.0402 132.662 61.1296 134.155 61.4736C135.152 63.0078 136.446 67.7344 133.508 71.1056C132.366 66.9776 129.642 66.4547 129.642 66.4547L132.036 61.0402Z" fill="black"/>
<path d="M120.807 59.9601C120.807 59.9601 119.431 59.9601 117.752 59.9601C116.755 61.4943 120.188 65.7462 125.54 70.1494C126.827 66.1383 129.668 66.3791 129.668 66.3791L120.807 59.9601Z" fill="white"/>
<path d="M132.036 61.0402C132.036 61.0402 132.662 61.1296 134.155 61.4736C135.152 63.0078 137.306 67.1634 134.368 70.507C133.226 66.379 129.642 66.4341 129.642 66.4341L132.036 61.0402Z" fill="white"/>
<path d="M123.016 47.6105C123.415 51.2844 123.546 57.9305 120.808 60.1596C120.808 60.1596 122.232 64.2876 129.642 66.4342C134.1 63.861 132.036 61.1297 132.036 61.1297C128.094 59.8225 128.458 56.8434 129.401 54.0914L123.016 47.6105Z" fill="#FFBE9D"/>
<path opacity="0.2" d="M125.616 50.2593L129.4 54.0914C129.169 54.7283 128.994 55.3845 128.877 56.0522C127.357 55.7014 125.155 54.119 125.135 52.4953C125.163 51.7274 125.326 50.9706 125.616 50.2593V50.2593Z" fill="black"/>
<path d="M131.382 32.9286C132.586 31.6007 134.974 33.2932 135.854 36.5475C137.175 41.3635 133.653 41.7075 131.809 39.2995C129.965 36.8915 130.378 34.0363 131.382 32.9286Z" fill="#263238"/>
<path d="M135.111 41.384C136.319 41.8021 137.462 42.3905 138.503 43.1316C137.905 41.673 137.368 40.7855 135.111 41.384Z" fill="#263238"/>
<path d="M135.806 41.6111C136.784 41.4164 137.784 41.3608 138.778 41.446C137.801 40.6961 137.092 40.3246 135.806 41.6111Z" fill="#263238"/>
<path d="M119.769 41.8725C121.303 47.7411 121.833 50.2592 125.424 52.7154C130.839 56.4168 137.712 53.252 137.966 47.0394C138.193 41.4528 135.648 32.7977 129.366 31.5731C127.982 31.2921 126.549 31.3709 125.204 31.8021C123.859 32.2332 122.647 33.0023 121.684 34.0356C120.721 35.069 120.039 36.3321 119.704 37.7042C119.368 39.0763 119.391 40.5115 119.769 41.8725V41.8725Z" fill="#FFBE9D"/>
<path d="M122.603 34.1325L120.903 36.1071C120.394 36.6905 119.674 37.0494 118.902 37.1061C118.129 37.1627 117.365 36.9126 116.775 36.4098C116.191 35.9009 115.831 35.1821 115.773 34.4094C115.715 33.6366 115.964 32.8722 116.466 32.2818L118.165 30.3141C118.675 29.7313 119.394 29.3722 120.166 29.3143C120.938 29.2564 121.702 29.5043 122.293 30.0045V30.0045C122.876 30.5144 123.235 31.2329 123.293 32.0051C123.351 32.7774 123.103 33.5414 122.603 34.1325V34.1325Z" fill="white"/>
<path d="M124.172 36.3341L122.108 37.3661C121.261 37.7811 120.284 37.8439 119.39 37.541C118.497 37.2381 117.76 36.594 117.34 35.7493C116.925 34.9012 116.862 33.9233 117.165 33.0289C117.467 32.1344 118.112 31.396 118.957 30.9746L121.021 29.9426C121.87 29.5279 122.848 29.4659 123.743 29.7701C124.637 30.0743 125.375 30.72 125.795 31.5663V31.5663C126.21 32.4143 126.272 33.3918 125.968 34.2853C125.663 35.1787 125.018 35.9154 124.172 36.3341V36.3341Z" fill="#705CF6"/>
<path d="M121.529 46.2619C121.529 46.2619 125.768 45.2919 123.965 39.093C123.898 38.8544 123.886 38.6036 123.931 38.3598C123.975 38.116 124.075 37.8857 124.223 37.6864C124.37 37.4872 124.561 37.3244 124.781 37.2104C125.001 37.0964 125.245 37.0344 125.492 37.029C130.267 36.8983 134.732 35.9007 134.099 33.1349C133.308 29.6398 121.413 26.9429 119.252 33.9398C115.035 34.9237 114.877 43.2347 121.529 46.2619Z" fill="#263238"/>
<path d="M121.551 45.0374C122.759 45.4554 123.901 46.0438 124.943 46.7849C124.344 45.3401 123.807 44.4526 121.551 45.0374Z" fill="#263238"/>
<path d="M122.245 45.2781C123.223 45.0834 124.224 45.0278 125.217 45.113C124.247 44.3768 123.539 43.9984 122.245 45.2781Z" fill="#263238"/>
<path d="M118.805 46.4821C119.355 47.5186 120.292 48.2953 121.413 48.6424C122.906 49.0896 123.676 47.7687 123.291 46.3445C122.94 45.0649 121.743 43.2967 120.236 43.4687C119.909 43.514 119.597 43.6402 119.33 43.8358C119.064 44.0314 118.849 44.2903 118.708 44.5892C118.566 44.8881 118.5 45.2176 118.517 45.548C118.534 45.8784 118.633 46.1995 118.805 46.4821Z" fill="#FFBE9D"/>
<path d="M129.717 41.673C129.813 42.1546 130.15 42.4986 130.46 42.4367C130.769 42.3747 130.955 41.9275 130.865 41.4459C130.776 40.9643 130.432 40.6203 130.116 40.6823C129.799 40.7442 129.62 41.1845 129.717 41.673Z" fill="#263238"/>
<path d="M135.186 40.5929C135.283 41.0813 135.613 41.4185 135.929 41.3565C136.246 41.2946 136.425 40.8543 136.328 40.3727C136.232 39.8911 135.902 39.5471 135.585 39.609C135.269 39.6709 135.09 40.1113 135.186 40.5929Z" fill="#263238"/>
<path d="M135.455 39.664L136.549 39.0999C136.549 39.0999 136.129 40.125 135.455 39.664Z" fill="#263238"/>
<path d="M133.309 41.8037C133.956 42.8237 134.741 43.7497 135.641 44.5557C135.431 44.7857 135.173 44.9666 134.885 45.0855C134.597 45.2044 134.287 45.2584 133.976 45.2437L133.309 41.8037Z" fill="#ED847E"/>
<path d="M131.74 47.521C130.722 47.534 129.737 47.1574 128.988 46.4683C128.966 46.4452 128.953 46.4144 128.953 46.3823C128.953 46.3502 128.966 46.3194 128.988 46.2963C129.011 46.274 129.042 46.2616 129.074 46.2616C129.106 46.2616 129.137 46.274 129.16 46.2963C129.623 46.7046 130.176 46.9977 130.774 47.152C131.371 47.3062 131.997 47.3171 132.6 47.1838C132.631 47.1784 132.663 47.1854 132.689 47.2035C132.714 47.2216 132.732 47.2491 132.737 47.2802C132.743 47.3112 132.736 47.3431 132.718 47.3689C132.7 47.3947 132.672 47.4123 132.641 47.4178C132.345 47.4843 132.043 47.5189 131.74 47.521V47.521Z" fill="#263238"/>
<path d="M126.435 39.7947C126.392 39.7929 126.349 39.7812 126.311 39.7603C126.256 39.7274 126.217 39.6742 126.202 39.6123C126.186 39.5504 126.196 39.4848 126.229 39.4301C126.456 39.0435 126.773 38.7169 127.152 38.4775C127.532 38.2382 127.963 38.093 128.41 38.0541C128.473 38.054 128.534 38.0782 128.58 38.1217C128.626 38.1652 128.654 38.2247 128.657 38.288C128.658 38.3196 128.653 38.3511 128.642 38.3807C128.63 38.4102 128.613 38.4373 128.592 38.4603C128.57 38.4833 128.544 38.5018 128.515 38.5147C128.486 38.5277 128.455 38.5348 128.423 38.5357C128.054 38.5763 127.7 38.7042 127.39 38.9087C127.08 39.1133 126.824 39.3887 126.641 39.7122C126.616 39.7415 126.584 39.7643 126.548 39.7787C126.512 39.793 126.474 39.7985 126.435 39.7947Z" fill="#263238"/>
<path d="M136.707 37.8546C136.669 37.8648 136.629 37.8648 136.59 37.8546C136.269 37.6654 135.909 37.5544 135.537 37.5305C135.165 37.5066 134.793 37.5705 134.451 37.717C134.389 37.748 134.319 37.7535 134.253 37.7322C134.188 37.7109 134.134 37.6646 134.103 37.6035C134.072 37.5424 134.067 37.4714 134.088 37.4063C134.109 37.3411 134.156 37.2871 134.217 37.2561C134.629 37.0694 135.08 36.985 135.531 37.0102C135.983 37.0354 136.422 37.1693 136.81 37.4006C136.838 37.4156 136.862 37.436 136.881 37.4605C136.901 37.485 136.915 37.5132 136.924 37.5433C136.932 37.5735 136.934 37.605 136.93 37.636C136.926 37.667 136.916 37.6969 136.9 37.7239C136.883 37.761 136.856 37.7928 136.822 37.8158C136.788 37.8388 136.748 37.8523 136.707 37.8546Z" fill="#263238"/>
<path d="M122.94 105.753L128.444 106.139L125.96 112.021C125.96 112.021 121.364 110.569 121.179 107.205L122.94 105.753Z" fill="#FFBE9D"/>
<path d="M130.557 109.468L127.894 113.486L125.968 112.021L128.465 106.139L130.557 109.468Z" fill="#FFBE9D"/>
<path d="M129.985 40.7373L131.079 40.1731C131.079 40.1731 130.66 41.1982 129.985 40.7373Z" fill="#263238"/>
</svg>
